<?xml version="1.0" encoding="UTF-8"?>
<svg version="1.1" xmlns="http://www.w3.org/2000/svg" width="1600" height="643">
<path d="M0 0 C9.31680439 4.3328753 9.31680439 4.3328753 11.8671875 9.8203125 C19.49649317 38.07535735 1.39634462 76.18713614 -12.01123047 100.00097656 C-17.35664241 109.14240567 -23.23627337 118.00700146 -30.77661133 125.48974609 C-31.40553787 126.11497162 -32.03446442 126.74019714 -32.68244934 127.3843689 C-33.16106918 127.85823029 -33.63968903 128.33209167 -34.1328125 128.8203125 C-33.28137791 128.82251234 -33.28137791 128.82251234 -32.41274261 128.82475662 C-18.52891435 128.8619912 -4.64532992 128.9214706 9.23830414 129.00421524 C15.95266266 129.04383432 22.66688511 129.07581976 29.38134766 129.09130859 C35.87193117 129.10655103 42.36216003 129.14113073 48.85258484 129.18862152 C51.31781415 129.20335734 53.78309411 129.21134899 56.24836731 129.21219635 C72.74516739 129.22356006 88.43027142 129.58996863 103.3046875 137.6328125 C103.96662109 137.97828125 104.62855469 138.32375 105.31054688 138.6796875 C110.62741636 141.52856948 115.38748561 144.76509849 119.8671875 148.8203125 C120.5271875 149.38878906 121.1871875 149.95726562 121.8671875 150.54296875 C137.10975522 164.56494023 144.12150904 184.47326465 145.04701614 204.76258469 C145.13506279 209.08837713 145.11534232 213.41336482 145.09423828 217.73974609 C145.09367265 219.38711032 145.09399368 221.03447505 145.09512329 222.68183899 C145.09569189 227.10860007 145.08401833 231.53525047 145.06997538 235.96198606 C145.05738495 240.60507347 145.05629102 245.24816403 145.05392456 249.89126587 C145.04773403 258.66335892 145.03135642 267.43540151 145.01122558 276.20747244 C144.98879058 286.20276307 144.97785412 296.19805623 144.96783471 306.19336581 C144.94698777 326.73570943 144.9118595 347.27800777 144.8671875 367.8203125 C145.41370594 367.64602124 145.96022438 367.47172998 146.52330399 367.29215717 C149.02186915 366.49632422 151.52117913 365.7028555 154.02050781 364.90942383 C154.880242 364.63519844 155.7399762 364.36097305 156.62576294 364.07843781 C162.2434518 362.29740228 167.83877064 360.68469084 173.6171875 359.5078125 C174.68839844 359.27481445 174.68839844 359.27481445 175.78125 359.03710938 C190.52297548 355.89166795 206.8552102 354.2526321 220.65625 361.23046875 C225.54787575 364.59023313 228.3336972 370.07969153 231.4296875 375.0078125 C232.39938477 376.51311523 232.39938477 376.51311523 233.38867188 378.04882812 C235.24679218 380.95414949 237.06560326 383.87966045 238.8671875 386.8203125 C239.37983154 387.64337891 239.89247559 388.46644531 240.4206543 389.31445312 C244.70046119 396.50422327 244.98801083 402.52458363 243.8671875 410.8203125 C239.40997698 427.57387423 228.15285784 441.09676416 216.8671875 453.8203125 C216.15175781 454.64660156 215.43632813 455.47289062 214.69921875 456.32421875 C205.50382321 466.79627333 195.56760799 476.88279654 184.8671875 485.8203125 C183.98804688 486.58859375 183.10890625 487.356875 182.203125 488.1484375 C172.50491807 496.58324018 162.21700604 504.20963826 151.8671875 511.8203125 C151.24231445 512.2829248 150.61744141 512.74553711 149.97363281 513.22216797 C105.342902 546.19946214 53.88127962 574.92163087 -0.1328125 588.8203125 C-1.35871094 589.13871094 -2.58460937 589.45710937 -3.84765625 589.78515625 C-12.24508578 591.66569516 -20.42161989 592.14903897 -29.0078125 592.2578125 C-30.05388672 592.28012939 -31.09996094 592.30244629 -32.17773438 592.32543945 C-39.91970678 592.30267618 -47.00920871 591.38141605 -53.05322266 586.16186523 C-57.86417024 580.93178715 -61.6090615 574.81583899 -65.3828125 568.8203125 C-65.99382812 567.87414062 -66.60484375 566.92796875 -67.234375 565.953125 C-73.28106331 556.42100936 -76.42015214 549.21438945 -74.1328125 537.8203125 C-69.82960695 523.89491772 -61.60318343 511.69925125 -52.1328125 500.8203125 C-51.20355799 499.71014709 -50.27657628 498.59807634 -49.3515625 497.484375 C-48.36250716 496.30424479 -47.37292908 495.12455248 -46.3828125 493.9453125 C-45.95452148 493.42904297 -45.52623047 492.91277344 -45.08496094 492.38085938 C-39.46855033 485.7784833 -33.31905708 480.00655708 -27.1328125 473.8203125 C-398.0528125 473.8203125 -768.9728125 473.8203125 -1151.1328125 473.8203125 C-1149.1528125 481.0803125 -1147.1728125 488.3403125 -1145.1328125 495.8203125 C-1142.94049943 505.6857213 -1141.85915271 514.70180744 -1141.7578125 524.7578125 C-1141.74379395 525.70519287 -1141.72977539 526.65257324 -1141.71533203 527.62866211 C-1141.77431495 536.24394943 -1142.94524631 544.65366296 -1149.08984375 551.12255859 C-1153.16504157 554.50914149 -1157.74637769 557.07551756 -1162.36425781 559.6472168 C-1164.13689479 560.63508752 -1165.8970259 561.64276749 -1167.65625 562.65429688 C-1176.9383655 567.91664039 -1183.45416613 570.93088266 -1194.1328125 568.8203125 C-1212.63827875 563.30330852 -1227.9882447 548.32685977 -1241.2578125 534.9453125 C-1242.64419922 533.57052734 -1242.64419922 533.57052734 -1244.05859375 532.16796875 C-1250.18110763 526.02818403 -1255.74691113 519.61036689 -1261.1328125 512.8203125 C-1262.15801633 511.56595629 -1263.18508495 510.31311952 -1264.21484375 509.0625 C-1288.46369349 479.27948244 -1307.9218041 446.05732153 -1325.1328125 411.8203125 C-1325.59816406 410.90427246 -1326.06351563 409.98823242 -1326.54296875 409.04443359 C-1337.98947693 386.41195343 -1346.91830638 362.40834345 -1353.1328125 337.8203125 C-1353.32343262 337.07491211 -1353.51405273 336.32951172 -1353.71044922 335.56152344 C-1355.99369414 326.2326505 -1356.44200831 316.96868059 -1356.5703125 307.3828125 C-1356.59279053 306.29242676 -1356.61526855 305.20204102 -1356.63842773 304.07861328 C-1356.61336992 295.67846396 -1355.23132183 288.79362866 -1349.98828125 282.0703125 C-1346.01526275 278.93972611 -1341.80525095 276.37468536 -1337.4453125 273.8203125 C-1336.59775391 273.31242187 -1335.75019531 272.80453125 -1334.87695312 272.28125 C-1315.85043869 260.99556083 -1315.85043869 260.99556083 -1305.32421875 263.484375 C-1287.32505485 268.86774002 -1273.1323869 281.75592783 -1260.1328125 294.8203125 C-1260.12472565 293.70103867 -1260.11663879 292.58176483 -1260.10830688 291.42857361 C-1260.03044597 280.82280954 -1259.94260989 270.21716749 -1259.84528542 259.61156368 C-1259.79557646 254.16058274 -1259.74924651 248.70961884 -1259.7109375 243.25854492 C-1259.67376093 237.98700724 -1259.62731833 232.71562162 -1259.57474899 227.44421577 C-1259.55637541 225.44426738 -1259.54120638 223.4442866 -1259.52946854 221.44428825 C-1259.37007261 195.19708742 -1256.46921625 172.07039132 -1237.45703125 152.08984375 C-1231.36409983 146.14027543 -1225.04520344 141.50230431 -1217.5078125 137.5703125 C-1216.91798584 137.25304199 -1216.32815918 136.93577148 -1215.72045898 136.60888672 C-1202.2381058 129.93348198 -1188.19022894 129.2358986 -1173.48518372 129.31250381 C-1171.53598648 129.30782789 -1169.58679281 129.30140203 -1167.63760638 129.29340154 C-1162.3001009 129.27652232 -1156.96287901 129.28433662 -1151.62537093 129.29630852 C-1145.81169131 129.30491669 -1139.99806176 129.29026507 -1134.18439388 129.2785995 C-1123.33386318 129.26022206 -1112.48341954 129.25976952 -1101.6328786 129.26755239 C-1091.3807877 129.27469713 -1081.12874322 129.27231054 -1070.87665558 129.26148033 C-1070.18574347 129.26075562 -1069.49483137 129.26003091 -1068.78298253 129.25928424 C-1065.25972979 129.2555485 -1061.73647722 129.25167101 -1058.21322469 129.24774347 C-1032.74192919 129.21963896 -1007.27065634 129.21078252 -981.79934692 129.21219635 C-956.58113611 129.21353947 -931.3629496 129.20660634 -906.14474487 129.18862152 C-904.96918466 129.18778878 -904.96918466 129.18778878 -903.76987575 129.18693922 C-896.61172985 129.18186417 -889.45358403 129.17668741 -882.2954383 129.17138864 C-864.50253719 129.1582188 -846.70963535 129.14632425 -828.91673279 129.13529587 C-828.10655893 129.13479268 -827.29638507 129.1342895 -826.46166048 129.13377106 C-787.06884398 129.1094162 -747.67602571 129.0997561 -708.28320312 129.09130859 C-694.61612953 129.08836961 -680.94905595 129.08536558 -667.28198242 129.08209229 C-666.43432814 129.08188933 -665.58667386 129.08168638 -664.71333308 129.08147728 C-625.29449385 129.07195023 -585.87566192 129.05197182 -546.45682831 129.02930416 C-543.89715117 129.02783241 -541.33747402 129.02636517 -538.77779688 129.02489885 C-521.81442199 129.01517409 -504.8510472 129.00526934 -487.88767249 128.99524408 C-454.13590548 128.97529857 -420.3841379 128.95641048 -386.63236988 128.93824904 C-385.02508916 128.93738418 -383.41780845 128.93651857 -381.81052774 128.93565222 C-309.47134469 128.89666644 -237.13215899 128.86998055 -164.79296875 128.84863281 C-164.11573436 128.84843288 -163.43849997 128.84823294 -162.74074332 128.84802695 C-128.87143325 128.83803748 -95.002123 128.82875035 -61.1328125 128.8203125 C-61.60380371 128.36970459 -62.07479492 127.91909668 -62.56005859 127.45483398 C-67.23185488 122.59955983 -66.52812117 116.01636713 -66.49414062 109.72753906 C-65.7707287 76.33833692 -49.18033018 36.78865517 -27.1328125 11.8203125 C-26.55015625 11.09585938 -25.9675 10.37140625 -25.3671875 9.625 C-18.37886643 1.09421166 -11.07463232 -4.17024808 0 0 Z " fill="#021C46" transform="translate(1356.1328125,51.1796875)"/>
<path d="M0 0 C3.87088503 3.55414007 6.44952029 8.29644919 9.22436523 12.71337891 C9.87083008 13.71691406 10.51729492 14.72044922 11.18334961 15.75439453 C13.04146991 18.6597159 14.860281 21.58522685 16.66186523 24.52587891 C17.17450928 25.34894531 17.68715332 26.17201172 18.21533203 27.02001953 C22.49513892 34.20978968 22.78268856 40.23015003 21.66186523 48.52587891 C17.20465471 65.27944064 5.94753558 78.80233056 -5.33813477 91.52587891 C-6.05356445 92.35216797 -6.76899414 93.17845703 -7.50610352 94.02978516 C-16.70149906 104.50183974 -26.63771428 114.58836295 -37.33813477 123.52587891 C-38.21727539 124.29416016 -39.09641602 125.06244141 -40.00219727 125.85400391 C-49.7004042 134.28880658 -59.98831623 141.91520467 -70.33813477 149.52587891 C-70.96300781 149.98849121 -71.58788086 150.45110352 -72.23168945 150.92773438 C-116.86242026 183.90502855 -168.32404265 212.62719728 -222.33813477 226.52587891 C-223.5640332 226.84427734 -224.78993164 227.16267578 -226.05297852 227.49072266 C-234.45040804 229.37126157 -242.62694216 229.85460538 -251.21313477 229.96337891 C-252.25920898 229.9856958 -253.3052832 230.0080127 -254.38305664 230.03100586 C-262.12502905 230.00824259 -269.21453098 229.08698246 -275.25854492 223.86743164 C-280.06949251 218.63735355 -283.81438376 212.52140539 -287.58813477 206.52587891 C-288.5046582 205.10662109 -288.5046582 205.10662109 -289.43969727 203.65869141 C-295.48638558 194.12657577 -298.6254744 186.91995585 -296.33813477 175.52587891 C-292.03463706 161.59953869 -283.80784842 149.40629475 -274.33813477 138.52587891 C-273.4205289 137.427487 -272.50526619 136.32713444 -271.59204102 135.22509766 C-266.29313571 128.87104538 -260.78870626 122.77755869 -254.96313477 116.90087891 C-254.39248291 116.32104248 -253.82183105 115.74120605 -253.23388672 115.14379883 C-249.83513273 111.76990043 -246.36619037 109.1479151 -242.33813477 106.52587891 C-240.64144011 105.03862 -238.97519913 103.51603214 -237.33813477 101.96337891 C-231.50540231 96.58114204 -225.36564401 91.69964932 -219.07592773 86.86523438 C-217.42842591 85.59546829 -215.79019443 84.31475937 -214.15454102 83.02978516 C-195.49344967 68.46900851 -175.7538932 55.48183046 -155.33813477 43.52587891 C-154.21060791 42.85951416 -154.21060791 42.85951416 -153.06030273 42.1796875 C-130.93196772 29.13010292 -108.18509978 17.98274588 -84.2434082 8.65820312 C-81.73993146 7.68247832 -79.24496731 6.68867263 -76.75219727 5.68603516 C-55.56638377 -2.70970061 -20.84290022 -14.31573824 0 0 Z " fill="#EBD89E" transform="translate(1578.338134765625,413.47412109375)"/>
<path d="M0 0 C9.39699955 3.99696718 17.40286285 9.70277178 25.11328125 16.32421875 C25.86609375 16.95457031 26.61890625 17.58492188 27.39453125 18.234375 C45.85543016 34.20305256 61.8347142 53.60552238 76.11328125 73.32421875 C76.59619629 73.98615234 77.07911133 74.64808594 77.57666016 75.33007812 C91.49851133 94.46274571 103.79571752 114.5559423 115.11328125 135.32421875 C115.62101074 136.25314941 116.12874023 137.18208008 116.65185547 138.13916016 C128.35055285 159.67633802 138.33500102 181.90993697 146.32128906 205.08569336 C147.0447489 207.13051556 147.83000973 209.13776815 148.6328125 211.15234375 C150.6867272 216.58613531 151.91408212 222.24057321 153.23828125 227.88671875 C153.63466797 229.53317383 153.63466797 229.53317383 154.0390625 231.21289062 C156.23659702 240.46596111 157.31394553 249.13342508 157.36328125 258.63671875 C157.39421875 260.10915039 157.39421875 260.10915039 157.42578125 261.61132812 C157.47257281 270.44908397 156.47880608 278.9702183 150.15625 285.62646484 C146.08105218 289.01304774 141.49971606 291.57942381 136.88183594 294.15112305 C135.10919896 295.13899377 133.34906785 296.14667374 131.58984375 297.15820312 C122.30772825 302.42054664 115.79192762 305.43478891 105.11328125 303.32421875 C86.607815 297.80721477 71.25784905 282.83076602 57.98828125 269.44921875 C57.06402344 268.53269531 56.13976562 267.61617187 55.1875 266.671875 C49.06498612 260.53209028 43.49918262 254.11427314 38.11328125 247.32421875 C37.08807742 246.06986254 36.0610088 244.81702577 35.03125 243.56640625 C10.78240026 213.78338869 -8.67571035 180.56122778 -25.88671875 146.32421875 C-26.35207031 145.40817871 -26.81742188 144.49213867 -27.296875 143.54833984 C-38.74338318 120.91585968 -47.67221263 96.9122497 -53.88671875 72.32421875 C-54.07733887 71.57881836 -54.26795898 70.83341797 -54.46435547 70.06542969 C-56.74760039 60.73655675 -57.19591456 51.47258684 -57.32421875 41.88671875 C-57.34669678 40.79633301 -57.3691748 39.70594727 -57.39233398 38.58251953 C-57.36727617 30.18237021 -55.98522808 23.29753491 -50.7421875 16.57421875 C-46.769169 13.44363236 -42.5591572 10.87859161 -38.19921875 8.32421875 C-36.92788086 7.56238281 -36.92788086 7.56238281 -35.63085938 6.78515625 C-22.68714142 -0.89248634 -14.75746633 -5.34419048 0 0 Z " fill="#EBD89E" transform="translate(56.88671875,316.67578125)"/>
<path d="M0 0 C2.77063499 2.49357149 2.98462878 3.87263844 3.4375 7.625 C2.62694211 23.95624049 -12.23098994 37.95056376 -23 49 C-23.56799316 49.58845703 -24.13598633 50.17691406 -24.72119141 50.78320312 C-31.25834682 57.53892605 -37.86485748 63.97847601 -45.25390625 69.8125 C-47.69878301 71.76005474 -50.06740949 73.77398185 -52.42578125 75.82470703 C-61.21051979 83.42960941 -70.56794547 90.22638683 -80 97 C-80.8142041 97.58716797 -81.6284082 98.17433594 -82.46728516 98.77929688 C-103.11900102 113.62720381 -124.87061083 126.48991738 -147 139 C-148.10118164 139.62430908 -148.10118164 139.62430908 -149.22460938 140.26123047 C-218.63354228 179.33470977 -218.63354228 179.33470977 -249.37890625 172.46875 C-253.47431589 171.08098688 -255.79007388 169.68103079 -258 166 C-259.80226116 158.17714176 -257.16290844 152.0030875 -253.1953125 145.34375 C-246.01489509 134.25549148 -237.28448715 125.01007407 -228 115.6875 C-227.49179718 115.1755307 -226.98359436 114.6635614 -226.45999146 114.13607788 C-219.64233325 107.29289925 -212.57409 101.01201726 -205 95 C-203.683251 93.91502491 -202.36913772 92.82683707 -201.05859375 91.734375 C-172.29695415 67.95522052 -140.5026426 48.20842658 -108 30 C-107.33967773 29.6277832 -106.67935547 29.25556641 -105.99902344 28.87207031 C-25.92033971 -16.04592458 -25.92033971 -16.04592458 0 0 Z " fill="#EBCB61" transform="translate(1559,426)"/>
<path d="M0 0 C18.19585237 7.62018084 34.18289633 26.79282589 46.1875 42 C47.10725175 43.12023621 48.02924315 44.23863627 48.953125 45.35546875 C56.42689266 54.44562136 63.13690819 63.94955293 69.67089844 73.73242188 C71.07600722 75.83329927 72.4925999 77.92579257 73.9140625 80.015625 C79.660047 88.49434888 85.03105572 97.15166366 90.1875 106 C90.63851074 106.77053711 91.08952148 107.54107422 91.55419922 108.33496094 C139.9157497 191.17028852 139.9157497 191.17028852 140.4375 233.5625 C140.47617187 235.45162109 140.47617187 235.45162109 140.515625 237.37890625 C140.05548727 242.45685478 138.42194749 245.69697209 134.9375 249.375 C131.17109199 251.60060473 129.54878865 251.69226804 125.1875 251 C116.77439817 247.74408206 109.9018675 242.93733387 103.1875 237 C102.67541992 236.54818359 102.16333984 236.09636719 101.63574219 235.63085938 C94.34318272 229.15725044 87.50636463 222.44300722 81.1875 215 C80.51976562 214.22011719 79.85203125 213.44023438 79.1640625 212.63671875 C37.19465146 162.47625165 -20.99365125 80.55322742 -19.1015625 11.75 C-18.60021643 6.98043743 -17.31939963 3.73014402 -14.125 0.0625 C-9.30961823 -2.1499727 -4.92809166 -1.2926142 0 0 Z " fill="#EBCB61" transform="translate(60.8125,334)"/>
<path d="M0 0 C30.64388401 16.17147542 64.50956054 47.13246696 77.1796875 80.06640625 C78.50516195 84.80655535 78.91679219 89.1403121 78 94 C76.08074459 97.16019863 73.71737359 99.51688276 71 102 C70.2575 102.804375 69.515 103.60875 68.75 104.4375 C65.22375382 107.58593408 61.50512252 107.22241676 57 107 C36.19212305 101.97479671 18.76002478 87.09218262 3.67236328 72.60498047 C2.54537916 71.52340476 1.4134181 70.44699405 0.27685547 69.37548828 C-15.64580342 54.33273073 -32.80344984 35.30751453 -36.6875 13.0625 C-36.50054343 7.24347689 -31.7518243 3.03877071 -28 -1 C-27.48050781 -1.57105469 -26.96101563 -2.14210937 -26.42578125 -2.73046875 C-19.35223164 -9.02883484 -7.14474955 -3.37111423 0 0 Z " fill="#EBD89D" transform="translate(366,64)"/>
<path d="M0 0 C9.31680439 4.3328753 9.31680439 4.3328753 11.8671875 9.8203125 C19.49663032 38.07586527 1.39589824 76.18611001 -12.01098633 100.00073242 C-19.37131689 112.58694092 -28.29638863 127.78260027 -42.1328125 133.8203125 C-48.92384069 135.01872924 -55.18820299 131.9055996 -61.1328125 128.8203125 C-64.00208812 126.57788313 -65.1110866 124.30086476 -66.1328125 120.8203125 C-69.1533301 85.38191416 -52.70716386 43.75161374 -30.8828125 16.1328125 C-29.64307522 14.68645234 -28.39371566 13.24825839 -27.1328125 11.8203125 C-26.55015625 11.09585938 -25.9675 10.37140625 -25.3671875 9.625 C-18.37886643 1.09421166 -11.07463232 -4.17024808 0 0 Z " fill="#EBD89D" transform="translate(1356.1328125,51.1796875)"/>
<path d="M0 0 C3 1 3 1 4.1875 3.0625 C4.5896875 4.0215625 4.5896875 4.0215625 5 5 C2.21312902 6.84070559 -0.58025127 8.67128178 -3.375 10.5 C-4.1690625 11.02464844 -4.963125 11.54929687 -5.78125 12.08984375 C-6.54179688 12.58613281 -7.30234375 13.08242188 -8.0859375 13.59375 C-8.7876709 14.05458984 -9.4894043 14.51542969 -10.21240234 14.99023438 C-12 16 -12 16 -14 16 C-13.566875 16.87398438 -13.566875 16.87398438 -13.125 17.765625 C-10.17053754 24.29006293 -8.03465052 30.884427 -10 38 C-12.86094783 41.19221547 -16.26211789 42.97015674 -20 45 C-22.00614279 46.30309146 -24.00632765 47.61540817 -26 48.9375 C-30.73846154 52 -30.73846154 52 -33 52 C-33.99 49.03 -33.99 49.03 -35 46 C-34.18595703 45.22076172 -34.18595703 45.22076172 -33.35546875 44.42578125 C-26.02568927 37.36962494 -26.02568927 37.36962494 -23.43359375 27.8359375 C-23.3087561 26.47927979 -23.3087561 26.47927979 -23.18139648 25.09521484 C-23.12153564 24.40379395 -23.0616748 23.71237305 -23 23 C-23.96317139 23.61705811 -23.96317139 23.61705811 -24.94580078 24.24658203 C-37.67839043 32.40258467 -50.41635299 40.54965571 -63.18017578 48.65673828 C-64.46384033 49.47247314 -64.46384033 49.47247314 -65.7734375 50.3046875 C-66.52028809 50.77890137 -67.26713867 51.25311523 -68.03662109 51.74169922 C-72.85738155 54.83125398 -73.85004199 57.00233899 -75.3125 62.375 C-80.83032569 81.0961193 -90.89915837 93.72607449 -107.98730469 103.08886719 C-116.90394767 107.66228417 -125.40439968 111.27081436 -135.5625 111.375 C-136.82191406 111.40335938 -138.08132813 111.43171875 -139.37890625 111.4609375 C-143.6040066 110.92311459 -145.66062037 109.57759862 -149 107 C-150.485 106.01 -150.485 106.01 -152 105 C-152.49927002 105.33322266 -152.99854004 105.66644531 -153.51293945 106.00976562 C-155.77480834 107.51364684 -158.04350143 109.00689989 -160.3125 110.5 C-161.09818359 111.02464844 -161.88386719 111.54929687 -162.69335938 112.08984375 C-163.8293457 112.83427734 -163.8293457 112.83427734 -164.98828125 113.59375 C-165.68477783 114.05458984 -166.38127441 114.51542969 -167.09887695 114.99023438 C-169 116 -169 116 -172 116 C-172.66 114.35 -173.32 112.7 -174 111 C-170.67219081 108.65869551 -167.33805389 106.32667338 -164 104 C-163.36320312 103.55269531 -162.72640625 103.10539063 -162.0703125 102.64453125 C-158.23240072 100 -158.23240072 100 -156 100 C-156.28875 99.20078125 -156.5775 98.4015625 -156.875 97.578125 C-162.47795753 81.00270899 -162.47795753 81.00270899 -160 75 C-155.94259736 71.11214868 -150.87301493 68.53052075 -145.90356445 65.99487305 C-143.79883222 64.92906757 -143.79883222 64.92906757 -141.125 63.171875 C-140.073125 62.59179688 -140.073125 62.59179688 -139 62 C-136.6875 62.8125 -136.6875 62.8125 -135 64 C-135 68 -135 68 -136.35546875 69.421875 C-136.96003906 69.86015625 -137.56460937 70.2984375 -138.1875 70.75 C-142.99972064 74.67215544 -146.64720662 78.57609499 -147.3046875 84.95703125 C-147.3116223 87.6581351 -147.2226139 90.30884531 -147 93 C-139.57888239 88.39912828 -132.18099549 83.76405834 -124.828125 79.0546875 C-123.22445068 78.02794922 -123.22445068 78.02794922 -121.58837891 76.98046875 C-119.40181913 75.57512582 -117.21919444 74.16364166 -115.04052734 72.74609375 C-106.12613203 66.9696857 -106.12613203 66.9696857 -101.6484375 64.7578125 C-95.13653245 61.45262552 -95.13653245 61.45262552 -91.51953125 55.3203125 C-90.7723813 52.53775494 -90.22786916 49.74295565 -89.73046875 46.90625 C-87.42557074 34.58059221 -78.56476226 25.0283053 -68.71875 17.73046875 C-65.22347984 15.50574938 -61.62786579 13.56736118 -57.9375 11.6875 C-57.2767749 11.34960449 -56.6160498 11.01170898 -55.93530273 10.66357422 C-47.39237874 6.48261154 -38.51064935 4.70618851 -29 6 C-27.23629053 7.00411778 -25.5051526 8.06774521 -23.8125 9.1875 C-21.20415893 10.81645407 -21.20415893 10.81645407 -18 11 C-12.08326332 8.67117033 -6.88824889 4.75233584 -1.81835938 0.97558594 C-1.21830078 0.65364258 -0.61824219 0.33169922 0 0 Z " fill="#C19E39" transform="translate(1519,456)"/>
<path d="M0 0 C4.18020025 1.39340008 5.46557639 4.36186855 7.6875 7.9375 C8.10322266 8.58396484 8.51894531 9.23042969 8.94726562 9.89648438 C12 14.72371459 12 14.72371459 12 17 C12.67804688 16.71125 13.35609375 16.4225 14.0546875 16.125 C14.98539063 15.75375 15.91609375 15.3825 16.875 15 C17.77992187 14.62875 18.68484375 14.2575 19.6171875 13.875 C28.32968924 11.62141987 28.32968924 11.62141987 33 13 C36.13982835 16.07228068 38.0632068 19.64900644 40.125 23.5 C40.69992188 24.50160156 41.27484375 25.50320313 41.8671875 26.53515625 C43.27939666 29.00652228 44.65397333 31.49215984 46 34 C44.61914063 35.50415039 44.61914063 35.50415039 43 37 C39.2008627 36.867653 37.15567152 34.57720265 34.5 32.0625 C30.67823609 28.45669192 28.11651672 26.08140449 22.75 25.875 C21.8425 25.91625 20.935 25.9575 20 26 C21.66671699 30.77542508 24.22179299 34.8525018 26.875 39.125 C27.35388672 39.90254639 27.83277344 40.68009277 28.32617188 41.48120117 C32.51095095 48.25710559 36.75809962 54.99402882 41.02685547 61.71728516 C41.50268066 62.46671387 41.97850586 63.21614258 42.46875 63.98828125 C42.92193604 64.68824219 43.37512207 65.38820313 43.84204102 66.109375 C45 68 45 68 46.24609375 70.83203125 C49.14664577 74.4173461 53.25227453 75.09072077 57.5625 76.375 C65.33363637 78.89275135 71.79369384 81.52603797 78 87 C78.60328125 87.49628906 79.2065625 87.99257813 79.828125 88.50390625 C89.90883105 97.56291912 100.10462124 114.6136064 101.2734375 128.171875 C101.46864094 135.04904225 101.58110789 139.8736593 96.99609375 145.25390625 C95.80419586 146.99207089 95.80419586 146.99207089 96.0625 149.2578125 C97.34496792 153.00903116 99.3596558 156.03690778 101.5625 159.3125 C101.98724609 159.95767578 102.41199219 160.60285156 102.84960938 161.26757812 C103.89266393 162.84973954 104.94537872 164.42552501 106 166 C104.1875 167.5625 104.1875 167.5625 102 169 C97.81979975 167.60659992 96.53442361 164.63813145 94.3125 161.0625 C93.89677734 160.41603516 93.48105469 159.76957031 93.05273438 159.10351562 C90 154.27628541 90 154.27628541 90 152 C88.76636719 152.433125 88.76636719 152.433125 87.5078125 152.875 C86.39148438 153.24625 85.27515625 153.6175 84.125 154 C83.03445312 154.37125 81.94390625 154.7425 80.8203125 155.125 C71.514304 157.25643753 71.514304 157.25643753 67 156 C63.83589794 153.1911523 61.86728902 149.88392867 59.75 146.25 C59.15832031 145.32960938 58.56664062 144.40921875 57.95703125 143.4609375 C54.8552501 138.42510457 54.8552501 138.42510457 54 136 C54.66894531 133.76464844 54.66894531 133.76464844 56 132 C56.99 131.67 57.98 131.34 59 131 C59.4125 131.51949219 59.825 132.03898438 60.25 132.57421875 C64.24028301 137.39284176 68.1028298 141.63600503 74 144 C76.60574109 144.2400895 76.60574109 144.2400895 79.26171875 144.125 C80.15205811 144.10695313 81.04239746 144.08890625 81.9597168 144.0703125 C82.63301025 144.04710937 83.30630371 144.02390625 84 144 C83.62415771 143.39865234 83.24831543 142.79730469 82.86108398 142.17773438 C81.71630219 140.34608351 80.57161804 138.51437161 79.42700195 136.68261719 C78.08899812 134.54220512 76.75028144 132.40223851 75.41088867 130.26269531 C71.85877597 124.58628399 68.31885628 118.90311667 64.8046875 113.203125 C64.1351001 112.12095703 63.4655127 111.03878906 62.77563477 109.92382812 C61.48788201 107.84189978 60.20436469 105.75734441 58.92553711 103.66992188 C58.33780518 102.72181641 57.75007324 101.77371094 57.14453125 100.796875 C56.63253174 99.96510742 56.12053223 99.13333984 55.59301758 98.27636719 C51.90334077 93.00394626 48.48724254 91.23652613 42.375 89.625 C28.00527018 85.45329998 18.39059523 77.75526634 10.6015625 64.93359375 C5.20448448 55.04772645 0.17943551 43.49556437 2 32 C3.19954171 29.29808146 4.5356557 26.83049815 6.1015625 24.32421875 C7.24722995 22.02208349 7.24722995 22.02208349 6.41015625 19.62109375 C4.36706907 15.82355497 2.04523538 12.22723184 -0.34179688 8.640625 C-1.30349845 7.13960257 -2.159909 5.57231847 -3 4 C-2.67 3.01 -2.34 2.02 -2 1 C-1.34 0.67 -0.68 0.34 0 0 Z " fill="#C29E39" transform="translate(69,375)"/>
<path d="M0 0 C2.13851402 6.1728738 3.5477728 12.39265731 4.6875 18.8125 C4.81874268 19.54138428 4.94998535 20.27026855 5.08520508 21.02124023 C5.72141011 24.73222292 6.05726694 28.24190801 6 32 C-23.25417281 47.47566537 -52.78388716 61.71028378 -85 70 C-86.22589844 70.31839844 -87.45179687 70.63679687 -88.71484375 70.96484375 C-97.11227328 72.84538266 -105.28880739 73.32872647 -113.875 73.4375 C-114.92107422 73.45981689 -115.96714844 73.48213379 -117.04492188 73.50512695 C-124.78794232 73.4823606 -131.90269104 72.56894173 -137.92919922 67.31958008 C-142.57066137 62.24825744 -146.2842862 56.38901162 -150 50.625 C-150.59683594 49.72394531 -151.19367188 48.82289063 -151.80859375 47.89453125 C-152.36675781 47.03472656 -152.92492188 46.17492187 -153.5 45.2890625 C-154.0053125 44.51256348 -154.510625 43.73606445 -155.03125 42.93603516 C-155.3509375 42.29714355 -155.670625 41.65825195 -156 41 C-155.67 40.34 -155.34 39.68 -155 39 C-154.13375 39.78375 -153.2675 40.5675 -152.375 41.375 C-144.67335827 47.74504947 -133.55716458 47.58398655 -124 47 C-82.49627668 42.92701439 -40.70774738 23.33071227 -5.33203125 1.9140625 C-2 0 -2 0 0 0 Z " fill="#ECCC61" transform="translate(1441,570)"/>
<path d="M0 0 C0.66 0 1.32 0 2 0 C3.23830358 1.65714156 4.38848228 3.38028161 5.5 5.125 C27.56680902 39.02184924 59.86588406 87.50001188 100.7578125 99.61328125 C105.15342277 100.37140915 109.55989818 100.22407991 114 100 C110.30197166 104.01194886 105.61120785 106.40163528 100.9375 109.125 C100.03322266 109.67542969 99.12894531 110.22585938 98.19726562 110.79296875 C90.98110184 114.99165161 84.95910922 116.73148301 76.63671875 115.50390625 C68.23625884 112.82243494 61.22892139 109.03181179 54 104 C52.97003906 103.2884375 51.94007813 102.576875 50.87890625 101.84375 C42.60817373 95.84639954 35.40663153 88.69301395 28.1875 81.5 C27.69944885 81.01562469 27.21139771 80.53124939 26.70855713 80.03219604 C20.01687792 73.36684872 13.86903008 66.40112371 8 59 C6.97480502 57.74563656 5.9477337 56.49280196 4.91796875 55.2421875 C-0.49509726 48.59132471 -5.67307664 41.81487027 -10.625 34.8125 C-11.13393799 34.09368652 -11.64287598 33.37487305 -12.16723633 32.63427734 C-14.36101439 29.49540103 -16.34325378 26.46146719 -18 23 C-15.93971374 20.2899763 -13.87636827 17.58229646 -11.8125 14.875 C-11.23435547 14.11445312 -10.65621094 13.35390625 -10.06054688 12.5703125 C-8.38362049 10.3723073 -6.69658828 8.18285854 -5 6 C-4.51450684 5.37512695 -4.02901367 4.75025391 -3.52880859 4.10644531 C-2.40101206 2.69742445 -1.20686665 1.34191568 0 0 Z " fill="#ECCC61" transform="translate(87,505)"/>
<path d="M0 0 C2.22599178 2.22599178 2.48683605 3.23816803 3.2265625 6.2265625 C3.44940918 7.08620605 3.67225586 7.94584961 3.90185547 8.83154297 C4.14049316 9.75338379 4.37913086 10.67522461 4.625 11.625 C8.07770627 24.22166293 12.23480013 38.78401075 24 46 C24.9384375 46.5775 25.876875 47.155 26.84375 47.75 C35.14015262 52.33277478 43.6337255 54.79280632 52.79931641 57.04711914 C53.7176123 57.27520264 54.6359082 57.50328613 55.58203125 57.73828125 C56.40936768 57.93462158 57.2367041 58.13096191 58.08911133 58.33325195 C60 59 60 59 61 61 C60.34628418 61.17539307 59.69256836 61.35078613 59.01904297 61.53149414 C32.66234174 68.05884504 32.66234174 68.05884504 13.2109375 85.77734375 C7.16578483 96.762478 4.23039026 108.95985919 1 121 C-1.22599178 118.77400822 -1.48683605 117.76183197 -2.2265625 114.7734375 C-2.44948975 113.91379395 -2.67241699 113.05415039 -2.90209961 112.16845703 C-3.14065674 111.24661621 -3.37921387 110.32477539 -3.625 109.375 C-7.39808608 95.57068067 -12.11013998 81.26500512 -24.70703125 73.28515625 C-35.72221808 67.19816667 -47.91573785 64.24222809 -60 61 C-59 59 -59 59 -57.14916992 58.30151367 C-56.35099854 58.09244385 -55.55282715 57.88337402 -54.73046875 57.66796875 C-53.84713867 57.42957275 -52.96380859 57.19117676 -52.05371094 56.94555664 C-50.63493652 56.5703186 -50.63493652 56.5703186 -49.1875 56.1875 C-33.56242419 51.86312485 -20.18552672 47.64777631 -11.55859375 33.00390625 C-6.78193593 23.79776624 -4.1255241 14.18098576 -1.796875 4.140625 C-1 1 -1 1 0 0 Z " fill="#6ECF12" transform="translate(717,0)"/>
<path d="M0 0 C0.66 0.66 1.32 1.32 2 2 C1.67 2.99 1.34 3.98 1 5 C0.14019531 4.67773438 -0.71960937 4.35546875 -1.60546875 4.0234375 C-25.17250305 -3.08192842 -56.2145625 13.54562367 -77 23 C-77.89122559 23.40234863 -78.78245117 23.80469727 -79.70068359 24.21923828 C-93.93500742 30.68071526 -107.50773482 38.11797809 -121 46 C-121.84916992 46.49226074 -122.69833984 46.98452148 -123.57324219 47.49169922 C-158.78804201 67.95397861 -192.43546095 91.90868621 -222 120 C-222.56895996 120.54027832 -223.13791992 121.08055664 -223.72412109 121.63720703 C-237.57212417 134.88756343 -250.27925897 148.90998582 -255 168 C-255.66 168 -256.32 168 -257 168 C-259.04704831 163.90590338 -258.63577794 159.43414359 -258 155 C-252.1216261 139.37641487 -239.53779152 127.27262196 -228 115.6875 C-227.49179718 115.1755307 -226.98359436 114.6635614 -226.45999146 114.13607788 C-219.64233325 107.29289925 -212.57409 101.01201726 -205 95 C-203.683251 93.91502491 -202.36913772 92.82683707 -201.05859375 91.734375 C-172.29695415 67.95522052 -140.5026426 48.20842658 -108 30 C-107.33967773 29.6277832 -106.67935547 29.25556641 -105.99902344 28.87207031 C-25.79440402 -16.11656484 -25.79440402 -16.11656484 0 0 Z " fill="#C29E3A" transform="translate(1559,426)"/>
<path d="M0 0 C19.48202189 8.3943274 19.48202189 8.3943274 24 17 C25.31037934 18.68477344 26.63823078 20.35648543 28 22 C24.21293268 22 20.73486879 21.5745952 17 21 C17.72058594 21.70769531 18.44117188 22.41539063 19.18359375 23.14453125 C21.03324572 24.98768637 22.74754635 26.85383256 24.47265625 28.82421875 C29.98057385 34.91366611 33.72141413 37.84353594 42.140625 38.57421875 C48.68838654 39.54922696 53.42287197 43.96185797 57.5 48.9375 C60.01098585 52.5621738 60.7486707 55.55984911 61 60 C61.52722316 64.42867456 63.0461838 66.66504623 66 70 C61.31908701 70 60.37898396 69.00354129 57 66 C54.36 67.65 51.72 69.3 49 71 C62.56515515 80.13831074 62.56515515 80.13831074 78 85 C77.67 85.66 77.34 86.32 77 87 C56.2180595 87 36.56003375 66.16912579 22.73779297 52.69091797 C21.22512236 51.21904994 19.69416942 49.76601704 18.16015625 48.31640625 C8.28455138 38.81523189 -0.09997104 27.83129965 -7 16 C-7.433125 15.25878906 -7.86625 14.51757812 -8.3125 13.75390625 C-10.4892102 9.75571287 -11.75823841 6.65775026 -11 2 C-8.67087653 -2.51267673 -4.14218936 -1.24265681 0 0 Z " fill="#E9CA62" transform="translate(348,77)"/>
<path d="M0 0 C2.1875 1 2.1875 1 4.1875 4 C7.60090958 30.08563533 -6.49668138 58.41629663 -17.8125 81 C-19.1325 81 -20.4525 81 -21.8125 81 C-22.06 81.598125 -22.3075 82.19625 -22.5625 82.8125 C-24.04861853 85.41320743 -25.19199839 86.54416577 -27.8125 88 C-31.0625 88.1875 -31.0625 88.1875 -33.8125 88 C-33.956875 88.763125 -34.10125 89.52625 -34.25 90.3125 C-34.8125 93 -34.8125 93 -35.8125 96 C-36.8025 95.67 -37.7925 95.34 -38.8125 95 C-38.61011719 94.40832031 -38.40773438 93.81664062 -38.19921875 93.20703125 C-37.48044287 90.74552502 -36.93362615 88.56527876 -36.8125 86 C-39.16676499 83.22877725 -39.16676499 83.22877725 -41.8125 81 C-41.72225811 77.39032455 -40.22736371 74.30134866 -38.8125 71 C-37.8225 71 -36.8325 71 -35.8125 71 C-35.8125 74.63 -35.8125 78.26 -35.8125 82 C-34.8225 82 -33.8325 82 -32.8125 82 C-32.65394531 81.40574219 -32.49539063 80.81148438 -32.33203125 80.19921875 C-30.95864565 75.32028536 -29.34875523 70.99857218 -27 66.5 C-24.23054271 60.66435786 -25.14190879 57.0120659 -26.8125 51 C-27.29118403 45.35152849 -26.25031672 41.97720914 -23.8125 37 C-25.1325 37 -26.4525 37 -27.8125 37 C-27.98410645 37.54527344 -28.15571289 38.09054688 -28.33251953 38.65234375 C-30.14352983 44.26156161 -32.31422013 49.60943468 -34.6875 55 C-38.47712029 63.82826052 -41.48299701 72.68198805 -43.8125 82 C-43.97621094 82.65484375 -44.13992188 83.3096875 -44.30859375 83.984375 C-46.52590352 93.14681208 -48.87835278 103.80244167 -45.8125 113 C-47.75 112.25 -47.75 112.25 -49.8125 111 C-52.8942482 102.32341133 -50.59009808 92.14480571 -48.3125 83.5625 C-48.04550293 82.53116943 -47.77850586 81.49983887 -47.50341797 80.43725586 C-44.69984622 69.98590542 -41.03814562 59.95365302 -36.8125 50 C-36.49555176 49.25169922 -36.17860352 48.50339844 -35.85205078 47.73242188 C-15.28104055 0 -15.28104055 0 0 0 Z " fill="#EACA61" transform="translate(1345.8125,58)"/>
<path d="M0 0 C19.88752919 5.2164011 37.65369037 27.35996011 50 43 C50.91975175 44.12023621 51.84174315 45.23863627 52.765625 46.35546875 C60.23939266 55.44562136 66.94940819 64.94955293 73.48339844 74.73242188 C74.88850722 76.83329927 76.3050999 78.92579257 77.7265625 81.015625 C83.472547 89.49434888 88.84355572 98.15166366 94 107 C94.45101074 107.77053711 94.90202148 108.54107422 95.36669922 109.33496094 C143.7282497 192.17028852 143.7282497 192.17028852 144.25 234.5625 C144.28867187 236.45162109 144.28867187 236.45162109 144.328125 238.37890625 C143.90610332 243.03621691 142.42044337 246.29546795 139.4375 249.875 C138 251 138 251 136 251 C136.16008545 250.42523926 136.3201709 249.85047852 136.48510742 249.25830078 C139.47286314 236.15410901 136.67884185 221.65532227 133 209 C132.65388672 207.80866455 132.65388672 207.80866455 132.30078125 206.59326172 C121.55011082 170.5941583 103.66173251 135.89769507 84 104 C83.41621582 103.05205566 82.83243164 102.10411133 82.23095703 101.12744141 C47.45223595 42.11985896 47.45223595 42.11985896 -6 4 C-7.65672637 3.62033354 -9.32070245 3.26239024 -11 3 C-8.29939813 -1.0509028 -4.36826528 -0.55194688 0 0 Z " fill="#C29F3B" transform="translate(57,333)"/>
<path d="M0 0 C0 6.6 0 13.2 0 20 C-2.784375 20.1546875 -2.784375 20.1546875 -5.625 20.3125 C-12.2465425 20.87550499 -12.2465425 20.87550499 -18 24 C-21.15444175 29.78749996 -21.46679092 34.79561582 -21.51171875 41.30859375 C-21.52966995 42.27531509 -21.54762115 43.24203644 -21.56611633 44.23805237 C-21.61999511 47.30449147 -21.65404309 50.37077692 -21.6875 53.4375 C-21.72069286 55.5254119 -21.75518433 57.61330359 -21.79101562 59.70117188 C-21.87813682 64.80080063 -21.93839758 69.89974467 -22 75 C-28.27 75 -34.54 75 -41 75 C-41 50.91 -41 26.82 -41 2 C-35.06 2 -29.12 2 -23 2 C-22.67 4.97 -22.34 7.94 -22 11 C-21.505 10.278125 -21.01 9.55625 -20.5 8.8125 C-14.62636076 2.20465585 -8.79590428 0 0 0 Z " fill="#FAFBFB" transform="translate(895,328)"/>
<path d="M0 0 C0 6.6 0 13.2 0 20 C-2.784375 20.1546875 -2.784375 20.1546875 -5.625 20.3125 C-12.2465425 20.87550499 -12.2465425 20.87550499 -18 24 C-21.15444175 29.78749996 -21.46679092 34.79561582 -21.51171875 41.30859375 C-21.52966995 42.27531509 -21.54762115 43.24203644 -21.56611633 44.23805237 C-21.61999511 47.30449147 -21.65404309 50.37077692 -21.6875 53.4375 C-21.72069286 55.5254119 -21.75518433 57.61330359 -21.79101562 59.70117188 C-21.87813682 64.80080063 -21.93839758 69.89974467 -22 75 C-28.27 75 -34.54 75 -41 75 C-41 50.91 -41 26.82 -41 2 C-35.06 2 -29.12 2 -23 2 C-22.67 4.97 -22.34 7.94 -22 11 C-21.505 10.278125 -21.01 9.55625 -20.5 8.8125 C-14.62636076 2.20465585 -8.79590428 0 0 0 Z " fill="#FAFBFB" transform="translate(375,328)"/>
<path d="M0 0 C2.47074271 2.29802163 4.2635751 4.73779164 6.1015625 7.5625 C6.67390625 8.44164062 7.24625 9.32078125 7.8359375 10.2265625 C8.72152344 11.59941406 8.72152344 11.59941406 9.625 13 C10.223125 13.91523438 10.82125 14.83046875 11.4375 15.7734375 C16.82944088 24.09312908 18.22408655 31.12337027 17 41 C12.63371244 57.77482811 1.21572431 71.25485874 -10 84 C-11.21034757 85.43580447 -12.41911835 86.87294272 -13.625 88.3125 C-14.40875 89.199375 -15.1925 90.08625 -16 91 C-16.33 91 -16.66 91 -17 91 C-17.14622803 90.19780029 -17.29245605 89.39560059 -17.44311523 88.5690918 C-18.1056674 84.94148072 -18.77154326 81.31448754 -19.4375 77.6875 C-19.78264648 75.79354492 -19.78264648 75.79354492 -20.13476562 73.86132812 C-20.35712891 72.65283203 -20.57949219 71.44433594 -20.80859375 70.19921875 C-21.01282959 69.08377686 -21.21706543 67.96833496 -21.42749023 66.8190918 C-21.95328085 63.9383335 -21.95328085 63.9383335 -23 61 C-23.43429188 56.19317853 -23.62531 54.02766111 -21.09375 49.8671875 C-20.2378125 48.87976563 -19.381875 47.89234375 -18.5 46.875 C-8.89849084 35.29842104 0.23211459 21.1224274 0.0625 5.6875 C0.05347656 4.61886719 0.04445313 3.55023438 0.03515625 2.44921875 C0.02355469 1.64097656 0.01195312 0.83273437 0 0 Z " fill="#ECCC61" transform="translate(1583,421)"/>
<path d="M0 0 C0.66 0.33 1.32 0.66 2 1 C1.72285156 1.51949219 1.44570313 2.03898437 1.16015625 2.57421875 C0.79792969 3.27160156 0.43570312 3.96898437 0.0625 4.6875 C-0.29714844 5.37199219 -0.65679688 6.05648438 -1.02734375 6.76171875 C-3.55363837 12.57524011 -3.1915091 18.71989029 -3.1875 24.9375 C-3.18814453 25.96351318 -3.18878906 26.98952637 -3.18945312 28.04663086 C-3.14196744 34.90237606 -2.66369699 41.40755757 -1.4375 48.16015625 C-0.24916201 55.87374302 -0.24916201 55.87374302 -2.8359375 59.75390625 C-3.67382812 60.68074219 -4.51171875 61.60757813 -5.375 62.5625 C-6.28888415 63.5981248 -7.20025821 64.63596894 -8.109375 65.67578125 C-8.58310547 66.21283691 -9.05683594 66.74989258 -9.54492188 67.30322266 C-12.02355255 70.19357218 -14.32151815 73.21952088 -16.625 76.25 C-17.06247559 76.82306885 -17.49995117 77.3961377 -17.95068359 77.98657227 C-18.96933054 79.32270093 -19.98501684 80.66108604 -21 82 C-23 81 -23 81 -23.67016602 79.06982422 C-23.86280029 78.2398291 -24.05543457 77.40983398 -24.25390625 76.5546875 C-24.57584961 75.18570313 -24.57584961 75.18570313 -24.90429688 73.7890625 C-25.12150391 72.82742188 -25.33871094 71.86578125 -25.5625 70.875 C-25.78357422 69.9365625 -26.00464844 68.998125 -26.23242188 68.03125 C-28.40236482 58.66968347 -29.23079356 49.79073012 -29.3125 40.1875 C-29.34150391 39.06279297 -29.37050781 37.93808594 -29.40039062 36.77929688 C-29.46566417 28.13808318 -28.26553669 21.2132063 -22.88671875 14.2734375 C-18.7435961 11.01051818 -14.34539208 8.31043927 -9.8125 5.625 C-8.89791016 5.06683594 -7.98332031 4.50867188 -7.04101562 3.93359375 C-6.16767578 3.41152344 -5.29433594 2.88945312 -4.39453125 2.3515625 C-3.59893799 1.87541504 -2.80334473 1.39926758 -1.98364258 0.90869141 C-1.32904053 0.60882324 -0.67443848 0.30895508 0 0 Z " fill="#ECCC61" transform="translate(29,319)"/>
<path d="M0 0 C4.2844541 2.66551915 7.17447526 6.60470279 9.046875 11.2734375 C9.91838347 19.4108945 9.8947296 27.39624841 5.046875 34.2734375 C0.4701664 39.18299764 -3.34090738 41.39908255 -10.140625 41.6484375 C-16.99718516 41.55786207 -20.68350508 39.3676144 -25.5546875 34.7578125 C-29.24675421 30.17882473 -29.43291025 25.37203241 -29.515625 19.7109375 C-29.53044922 18.99067383 -29.54527344 18.27041016 -29.56054688 17.52832031 C-29.44259468 11.39199763 -27.5966735 7.16151424 -23.390625 2.56640625 C-15.44069884 -3.54725979 -9.12808717 -4.43813893 0 0 Z " fill="#051E48" transform="translate(1104.953125,346.7265625)"/>
<path d="M0 0 C4.2844541 2.66551915 7.17447526 6.60470279 9.046875 11.2734375 C9.91838347 19.4108945 9.8947296 27.39624841 5.046875 34.2734375 C0.4701664 39.18299764 -3.34090738 41.39908255 -10.140625 41.6484375 C-16.99718516 41.55786207 -20.68350508 39.3676144 -25.5546875 34.7578125 C-29.24675421 30.17882473 -29.43291025 25.37203241 -29.515625 19.7109375 C-29.53044922 18.99067383 -29.54527344 18.27041016 -29.56054688 17.52832031 C-29.44259468 11.39199763 -27.5966735 7.16151424 -23.390625 2.56640625 C-15.44069884 -3.54725979 -9.12808717 -4.43813893 0 0 Z " fill="#051E48" transform="translate(730.953125,346.7265625)"/>
<path d="M0 0 C4.2844541 2.66551915 7.17447526 6.60470279 9.046875 11.2734375 C9.91838347 19.4108945 9.8947296 27.39624841 5.046875 34.2734375 C0.4701664 39.18299764 -3.34090738 41.39908255 -10.140625 41.6484375 C-16.99718516 41.55786207 -20.68350508 39.3676144 -25.5546875 34.7578125 C-29.24675421 30.17882473 -29.43291025 25.37203241 -29.515625 19.7109375 C-29.53044922 18.99067383 -29.54527344 18.27041016 -29.56054688 17.52832031 C-29.44259468 11.39199763 -27.5966735 7.16151424 -23.390625 2.56640625 C-15.44069884 -3.54725979 -9.12808717 -4.43813893 0 0 Z " fill="#051E48" transform="translate(428.953125,346.7265625)"/>
<path d="M0 0 C2.55771393 2.55771393 2.86375675 4.64492901 3.8125 8.125 C6.24940858 16.21232298 8.82364986 22.53673371 16.3984375 26.8359375 C22.08408503 29.37996597 28.05105434 31.17968459 34 33 C31.23318237 34.84454508 28.91014182 35.7097868 25.75708008 36.64770508 C17.45445125 39.13920068 11.1532641 41.73597078 6.8125 49.5625 C4.29448822 55.15444823 2.68617641 61.1163206 1 67 C-2.06173909 63.93826091 -2.75325427 59.83203011 -3.96875 55.76171875 C-6.11253144 48.93689555 -9.11737123 43.89864221 -15.36328125 40.234375 C-21.02190953 37.58529865 -27.03510181 35.82519671 -33 34 C-30.33350292 31.33350292 -27.32949449 30.75070864 -23.8125 29.6875 C-15.75874167 27.0838897 -10.40669579 25.08814646 -6.3125 17.4375 C-3.74049985 11.79102284 -1.82213071 5.92446968 0 0 Z " fill="#6ECF12" transform="translate(449,567)"/>
<path d="M0 0 C0.88381517 4.33949062 1.75629039 8.68106221 2.6184082 13.02490234 C2.91316408 14.50176054 3.21098944 15.97800962 3.51196289 17.45361328 C3.94448739 19.57691538 4.36586159 21.70217602 4.78515625 23.828125 C5.04176025 25.1059082 5.29836426 26.38369141 5.56274414 27.70019531 C5.95434393 30.65545093 6.15348762 32.29819645 5 35 C3.16609198 36.83094053 1.37865765 38.43918384 -0.625 40.0625 C-1.1924292 40.53276611 -1.7598584 41.00303223 -2.34448242 41.48754883 C-9.01264419 46.94561966 -15.99302657 51.98948097 -23 57 C-24.77202174 53.83002908 -25.57808491 50.86985496 -26.2890625 47.31640625 C-26.50820312 46.22392578 -26.72734375 45.13144531 -26.953125 44.00585938 C-27.28570313 42.30139648 -27.28570313 42.30139648 -27.625 40.5625 C-27.85445312 39.43005859 -28.08390625 38.29761719 -28.3203125 37.13085938 C-30.40019974 26.62619079 -30.40019974 26.62619079 -30 23 C-28.72167969 21.39770508 -28.72167969 21.39770508 -26.921875 20.01953125 C-26.26074707 19.49963623 -25.59961914 18.97974121 -24.91845703 18.4440918 C-24.20286621 17.9056665 -23.48727539 17.36724121 -22.75 16.8125 C-21.2831297 15.67020054 -19.81699136 14.52696057 -18.3515625 13.3828125 C-17.25183105 12.53444824 -17.25183105 12.53444824 -16.12988281 11.66894531 C-12.06572796 8.48433245 -8.17769311 5.0896035 -4.2578125 1.73046875 C-2 0 -2 0 0 0 Z " fill="#ECCC61" transform="translate(1531,506)"/>
<path d="M0 0 C2.31160478 2.31160478 3.04719124 4.21155457 4.27734375 7.234375 C4.70853516 8.28367187 5.13972656 9.33296875 5.58398438 10.4140625 C6.03064453 11.51492188 6.47730469 12.61578125 6.9375 13.75 C7.8196157 15.91227487 8.703674 18.07375844 9.58984375 20.234375 C10.00218262 21.24693359 10.41452148 22.25949219 10.83935547 23.30273438 C11.77260035 25.47153736 12.7741156 27.4704546 13.94140625 29.515625 C15 32 15 32 14.51953125 33.9453125 C12.28831853 36.96232507 10.03070207 39.94366354 7.6875 42.875 C7.21376953 43.47441406 6.74003906 44.07382812 6.25195312 44.69140625 C3.9619672 47.57973323 1.6429322 50.43760249 -0.73046875 53.2578125 C-3.05406391 55.96931805 -3.05406391 55.96931805 -5 59 C-6.9829327 54.9651 -8.95818086 50.92655619 -10.92651367 46.88452148 C-11.59663314 45.51110831 -12.26881106 44.13869744 -12.94311523 42.76733398 C-13.91417761 40.79152664 -14.87768446 38.81218643 -15.83984375 36.83203125 C-16.29145119 35.91923149 -16.29145119 35.91923149 -16.75218201 34.98799133 C-18.3406492 31.69884892 -19.73994626 28.66816772 -20 25 C-19.13891602 23.21411133 -19.13891602 23.21411133 -17.75390625 21.58203125 C-17.24956055 20.97174072 -16.74521484 20.3614502 -16.22558594 19.73266602 C-15.67676758 19.09901123 -15.12794922 18.46535645 -14.5625 17.8125 C-13.4543776 16.48441628 -12.34630486 15.15629113 -11.23828125 13.828125 C-10.68865723 13.18037109 -10.1390332 12.53261719 -9.57275391 11.86523438 C-7.41309087 9.30394509 -5.33143178 6.68772927 -3.25 4.0625 C-2.16666667 2.70833333 -1.08333333 1.35416667 0 0 Z " fill="#ECCC61" transform="translate(40,412)"/>
<path d="M0 0 C0.99 0.33 1.98 0.66 3 1 C2.505 2.010625 2.01 3.02125 1.5 4.0625 C-0.37138589 8.49706372 -0.73526785 12.45008993 0.62182617 17.15649414 C2.73668226 24.65196264 0.94715456 29.28865883 -2.375 36.125 C-2.81328125 37.08148438 -3.2515625 38.03796875 -3.703125 39.0234375 C-4.77852571 41.36126514 -5.87716872 43.68467973 -7 46 C-7.99 46 -8.98 46 -10 46 C-11.49297212 43.01405576 -11.11755228 40.29146376 -11 37 C-10.67 36.34 -10.34 35.68 -10 35 C-10.99 35 -11.98 35 -13 35 C-14.01423211 38.32693973 -14.84988697 41.5152332 -15 45 C-12.666508 47.83411155 -12.666508 47.83411155 -10 50 C-10.125 52.5625 -10.125 52.5625 -11 55 C-11.185625 55.763125 -11.37125 56.52625 -11.5625 57.3125 C-11.706875 57.869375 -11.85125 58.42625 -12 59 C-11.34 59.33 -10.68 59.66 -10 60 C-9.855625 59.236875 -9.71125 58.47375 -9.5625 57.6875 C-9 55 -9 55 -8 52 C-6.33273212 51.56651035 -4.66413456 51.13729394 -2.98828125 50.73828125 C0.63779159 49.39186128 3.25492041 46.65329881 6 44 C7 47 7 47 5.4453125 50.1875 C4.68538773 51.46645945 3.91096984 52.73687913 3.125 54 C2.71733398 54.66555908 2.30966797 55.33111816 1.88964844 56.0168457 C-10.28415231 75.47577395 -10.28415231 75.47577395 -18.8125 77.75 C-19.534375 77.8325 -20.25625 77.915 -21 78 C-27.30968804 56.24953066 -14.82615833 29.27261896 -6.1875 9.8125 C-5.80247314 8.94431641 -5.41744629 8.07613281 -5.02075195 7.18164062 C-4.6568335 6.38564453 -4.29291504 5.58964844 -3.91796875 4.76953125 C-3.59594482 4.06417236 -3.2739209 3.35881348 -2.94213867 2.63208008 C-2 1 -2 1 0 0 Z " fill="#EACB63" transform="translate(1320,94)"/>
<path d="M0 0 C5.41460305 2.83490682 9.55866187 6.07406794 13.9375 10.3125 C15.17094682 11.4853519 16.40531407 12.65723664 17.640625 13.828125 C18.51557617 14.66053711 18.51557617 14.66053711 19.40820312 15.50976562 C21.28008807 17.26221742 23.21920459 18.91954268 25.1875 20.5625 C38.70821889 32.33212791 57.05362638 51.47052315 59 70 C58.67 70.66 58.34 71.32 58 72 C45.87467401 71.59582247 36.47818974 65.08767286 27 58 C30.17550182 55.53553446 33.36764944 53.73362186 37 52 C38.65 53.65 40.3 55.3 42 57 C42.66 56.67 43.32 56.34 44 56 C43.175 55.360625 42.35 54.72125 41.5 54.0625 C38.80479576 50.7608748 38.74331236 50.62779027 39.0625 46.75 C39.32645183 41.79265461 37.83031685 39.00292247 34.88671875 35.078125 C30.01033551 29.70703621 25.59231554 26.95559431 18.3125 26.5 C9.79423229 25.52554521 4.82763019 18.68046184 -0.56469727 12.59399414 C-1.99363443 11.00706937 -3.47760922 9.49698467 -5 8 C-0.70700357 6.73735399 1.87831311 7.37049588 6 9 C5.566875 8.51789063 5.13375 8.03578125 4.6875 7.5390625 C4.130625 6.90742187 3.57375 6.27578125 3 5.625 C2.443125 4.99851562 1.88625 4.37203125 1.3125 3.7265625 C0 2 0 2 0 0 Z " fill="#EACA61" transform="translate(369,90)"/>
<path d="M0 0 C0.99 0 1.98 0 3 0 C2.01 3.3 1.02 6.6 0 10 C1.32 10.66 2.64 11.32 4 12 C5.10433393 14.57677917 5.25970955 16.20772151 4.3828125 18.8828125 C3.64669802 20.61443417 2.82819509 22.31048201 2 24 C1.34 24 0.68 24 0 24 C-0.495 18.555 -0.495 18.555 -1 13 C-1.66 13 -2.32 13 -3 13 C-3.17015625 13.61746094 -3.3403125 14.23492187 -3.515625 14.87109375 C-4.79339158 19.33648014 -6.16154223 23.46983922 -8.25 27.625 C-9.94744361 31.30279448 -10.14478301 33.78057223 -9.37890625 37.84375 C-7.77830958 46.95230014 -9.06330386 55.16741032 -14.2734375 62.88671875 C-16.30784534 65.43281098 -18.28022074 67.18681382 -21 69 C-24.1875 69.125 -24.1875 69.125 -27 69 C-27.144375 69.763125 -27.28875 70.52625 -27.4375 71.3125 C-28 74 -28 74 -29 77 C-29.99 76.67 -30.98 76.34 -32 76 C-31.79761719 75.40832031 -31.59523438 74.81664062 -31.38671875 74.20703125 C-30.66794287 71.74552502 -30.12112615 69.56527876 -30 67 C-32.35426499 64.22877725 -32.35426499 64.22877725 -35 62 C-34.90975811 58.39032455 -33.41486371 55.30134866 -32 52 C-31.01 52 -30.02 52 -29 52 C-29 55.63 -29 59.26 -29 63 C-28.01 63 -27.02 63 -26 63 C-25.84144531 62.40574219 -25.68289063 61.81148437 -25.51953125 61.19921875 C-24.14614565 56.32028536 -22.53625523 51.99857218 -20.1875 47.5 C-17.4299284 41.68940269 -18.29007507 37.98991885 -20 32 C-21.05832647 24.85629634 -17.82676889 18.88542113 -14 13 C-11.20619426 10.42778694 -9.56136224 9.14595418 -5.875 8.1875 C-2.63211198 6.84804625 -2.4269134 6.43940937 -1.125 3.375 C-0.75375 2.26125 -0.3825 1.1475 0 0 Z " fill="#C39F3B" transform="translate(1339,77)"/>
<path d="M0 0 C1.98 1.65 3.96 3.3 6 5 C6.7425 4.690625 7.485 4.38125 8.25 4.0625 C9.1575 3.711875 10.065 3.36125 11 3 C11.639375 2.7421875 12.27875 2.484375 12.9375 2.21875 C15 2 15 2 16.921875 3.43359375 C17.52515625 4.09488281 18.1284375 4.75617188 18.75 5.4375 C19.36359375 6.09621094 19.9771875 6.75492187 20.609375 7.43359375 C21.06828125 7.95050781 21.5271875 8.46742187 22 9 C21.67 9.66 21.34 10.32 21 11 C20.0925 10.649375 19.185 10.29875 18.25 9.9375 C14.99408687 8.99829429 14.07250006 9.04485324 11 10 C11.4846875 10.4125 11.969375 10.825 12.46875 11.25 C13.1390625 11.8275 13.809375 12.405 14.5 13 C15.60601562 13.94939453 15.60601562 13.94939453 16.734375 14.91796875 C19 17 19 17 20.890625 19.17578125 C25.62771802 24.61945748 28.94490023 25.68193723 36.03515625 26.46875 C42.63265755 27.65091097 47.34874073 31.87138975 51.5 36.9375 C54.01098585 40.5621738 54.7486707 43.55984911 55 48 C55.52722316 52.42867456 57.0461838 54.66504623 60 58 C55.31908701 58 54.37898396 57.00354129 51 54 C50.278125 54.515625 49.55625 55.03125 48.8125 55.5625 C46 57 46 57 43.5 57 C40.12921565 55.65168626 38.30831828 53.76998194 36 51 C36 50.01 36 49.02 36 48 C36.70125 48.309375 37.4025 48.61875 38.125 48.9375 C41.08936657 50.03302678 43.87698108 50.56422992 47 51 C45.34139399 46.71872325 42.21582144 43.95626884 39 40.8125 C38.4534375 40.26658203 37.906875 39.72066406 37.34375 39.15820312 C34.44237893 36.22049968 34.44237893 36.22049968 31 34 C31 33.34 31 32.68 31 32 C30.29875 32.05800781 29.5975 32.11601563 28.875 32.17578125 C21.79359852 32.51253268 17.38803762 31.70421666 12 27 C8.42613204 23.5057282 5.20664287 19.94723578 4 15 C4.061875 13.700625 4.12375 12.40125 4.1875 11.0625 C4.31009391 7.66213214 3.69556051 6.10146245 1.5 3.5 C0.675 2.675 -0.15 1.85 -1 1 C-0.67 0.67 -0.34 0.34 0 0 Z " fill="#C39F3B" transform="translate(354,89)"/>
<path d="M0 0 C12.21051976 11.83172626 27.75591 29.63001994 28.5625 47.375 C28.48681961 52.92237261 26.65636438 55.57712523 22.82421875 59.44140625 C21 61 21 61 18 63 C18.0928125 62.2471875 18.185625 61.494375 18.28125 60.71875 C19.52416018 42.43021454 5.8404592 26.39394789 -5.5625 13.3125 C-6.0997168 12.71163574 -6.63693359 12.11077148 -7.19042969 11.49169922 C-11 7.200046 -11 7.200046 -11 5 C-7.37 3.35 -3.74 1.7 0 0 Z " fill="#ECCC61" transform="translate(416,105)"/>
<path d="M0 0 C1.10865985 0.91122727 2.21172219 1.82926659 3.3125 2.75 C4.23482422 3.51570312 4.23482422 3.51570312 5.17578125 4.296875 C7.06102439 6.05697352 8.47999136 7.92334208 10 10 C-10.45074321 46.6512334 -10.45074321 46.6512334 -25 53 C-31.51357429 54.00208835 -37.05592514 51.40772652 -43 49 C-43 48.67 -43 48.34 -43 48 C-41.700625 47.814375 -40.40125 47.62875 -39.0625 47.4375 C-27.45614248 44.79969147 -20.29668724 34.24757535 -14.265625 24.7421875 C-9.22858679 16.65270926 -4.41071135 8.44921078 0 0 Z " fill="#EACB61" transform="translate(1339,132)"/>
<path d="M0 0 C2.76996075 2.76996075 2.79009743 5.13834713 3.5078125 8.9765625 C3.63815887 9.66181 3.76850525 10.3470575 3.90280151 11.05307007 C4.31751498 13.24240911 4.72137033 15.43359325 5.125 17.625 C5.40423528 19.10950922 5.68417459 20.59388621 5.96484375 22.078125 C6.65274585 25.71708641 7.32593278 29.35834124 8 33 C2.39 36.63 -3.22 40.26 -9 44 C-12.44932247 40.55067753 -12.63438186 35.5401203 -13.625 30.875 C-13.85445312 29.8540625 -14.08390625 28.833125 -14.3203125 27.78125 C-14.9506882 24.86201013 -15.50111612 21.94435225 -16 19 C-16.14147461 18.2359082 -16.28294922 17.47181641 -16.42871094 16.68457031 C-16.6484375 14.6328125 -16.6484375 14.6328125 -16 11 C-13.66050682 8.45009624 -10.95317903 6.77090972 -8 5 C-7.236875 4.51144531 -6.47375 4.02289062 -5.6875 3.51953125 C-3.80610447 2.3201416 -1.91221789 1.14936501 0 0 Z " fill="#ECCC62" transform="translate(1489,538)"/>
<path d="M0 0 C4.26501677 1.42167226 5.30439429 4.48878613 7.3125 8.25 C7.69728516 8.91902344 8.08207031 9.58804687 8.47851562 10.27734375 C11.12349125 15.18187049 11.12349125 15.18187049 10.625 18.484375 C8.22337896 22.20226911 5.51482065 25.59842887 2.6875 29 C2.11837891 29.69867188 1.54925781 30.39734375 0.96289062 31.1171875 C-2.1874114 34.95107974 -5.42135241 38.56234978 -9 42 C-10.56464388 39.44921084 -12.1010896 36.88746037 -13.625 34.3125 C-14.07101563 33.59126953 -14.51703125 32.87003906 -14.9765625 32.12695312 C-18.11528781 26.75679029 -18.11528781 26.75679029 -17.60546875 23.41015625 C-15.45166526 20.17683081 -13.14439038 17.13330403 -10.6875 14.125 C-6.96418221 9.51517797 -3.40569667 4.85110163 0 0 Z " fill="#ECCC62" transform="translate(59,457)"/>
<path d="M0 0 C0.66 0 1.32 0 2 0 C2.21914063 0.80824219 2.43828125 1.61648437 2.6640625 2.44921875 C5.23627699 11.1943948 5.23627699 11.1943948 12 17 C15.61822572 18.5021875 19.26774917 19.81125819 23 21 C20.61489653 23.38510347 18.82375404 23.8048496 15.625 24.8125 C10.99936687 26.47700423 8.38731081 27.51185568 6 32 C4.53953327 35.62810682 3.22298514 39.28550789 2 43 C1.34 43 0.68 43 0 43 C-0.21914063 42.19175781 -0.43828125 41.38351562 -0.6640625 40.55078125 C-3.23627699 31.8056052 -3.23627699 31.8056052 -10 26 C-13.61822572 24.4978125 -17.26774917 23.18874181 -21 22 C-18.62673847 19.62673847 -16.7182338 19.03970185 -13.5625 17.9375 C-12.11037109 17.42509766 -12.11037109 17.42509766 -10.62890625 16.90234375 C-8.75562494 16.25936012 -6.87892249 15.6263075 -5 15 C-2.60725347 10.3640536 -1.45606358 4.99915161 0 0 Z " fill="#6ECF12" transform="translate(56,233)"/>
<path d="M0 0 C2 1 2 1 2.89453125 3.58203125 C3.50387436 5.7264004 4.10808954 7.87223367 4.70703125 10.01953125 C7.17014748 15.69734903 11.78795465 17.56446558 17.3125 19.75 C18.38113281 20.17796875 19.44976563 20.6059375 20.55078125 21.046875 C21.35902344 21.36140625 22.16726563 21.6759375 23 22 C20.88961411 23.1209902 18.87184914 24.04209183 16.59765625 24.7890625 C10.88643201 26.67227049 7.80365541 28.46526711 4.9609375 33.828125 C3.47806453 37.17965902 2.17807579 40.52777662 1 44 C-0.79731132 41.30403303 -1.46926734 39.65649901 -2.3125 36.625 C-3.78096009 32.22674817 -5.12202816 29.76997989 -9 27 C-12.9389548 25.43675945 -16.92643415 24.16294783 -21 23 C-21 22.34 -21 21.68 -21 21 C-20.34773438 20.82984375 -19.69546875 20.6596875 -19.0234375 20.484375 C-11.41919184 18.40397319 -11.41919184 18.40397319 -5 14 C-2.6825076 9.53640531 -1.14283489 4.88816509 0 0 Z " fill="#6ECF12" transform="translate(1070,112)"/>
<path d="M0 0 C2 1 2 1 2.89453125 3.328125 C3.19746094 4.29234375 3.50039062 5.2565625 3.8125 6.25 C5.51441617 10.99939062 6.72333803 14.05979489 11 17 C14.94156386 18.55601606 18.92652507 19.83707813 23 21 C22 23 22 23 19.453125 23.859375 C17.86757812 24.30023437 17.86757812 24.30023437 16.25 24.75 C10.52823145 26.60974446 8.00332085 27.76840884 5 33 C4.0998199 35.62486143 3.33267016 38.22971572 2.67578125 40.92578125 C2.34126953 41.95251953 2.34126953 41.95251953 2 43 C1.01 43.495 1.01 43.495 0 44 C-0.23074219 43.19175781 -0.46148438 42.38351562 -0.69921875 41.55078125 C-3.12136565 33.16687681 -3.12136565 33.16687681 -9 27 C-12.88095896 25.17959011 -16.84057704 24.00048481 -21 23 C-21 22.34 -21 21.68 -21 21 C-20.19175781 20.76925781 -19.38351562 20.53851562 -18.55078125 20.30078125 C-10.10267921 17.91839087 -10.10267921 17.91839087 -4 12 C-2.44848797 8.05678835 -1.16291507 4.07345111 0 0 Z " fill="#6ECF12" transform="translate(1138,561)"/>
<path d="M0 0 C1.06294533 2.70165272 1.0795626 3.79050654 0.03125 6.55078125 C-7.3738434 19.90639613 -18.29456539 28.0836533 -32.71484375 33.3828125 C-37.16195246 34.58391195 -41.14731934 34.74107226 -45.5 33 C-45.995 32.67 -46.49 32.34 -47 32 C-45.80690808 28.42072424 -44.9880143 28.07536967 -41.86328125 26.13671875 C-40.98575195 25.58588623 -40.10822266 25.03505371 -39.20410156 24.4675293 C-38.24987305 23.88011963 -37.29564453 23.29270996 -36.3125 22.6875 C-34.31362213 21.43778779 -32.31492985 20.18777867 -30.31640625 18.9375 C-28.76203857 17.97070312 -28.76203857 17.97070312 -27.17626953 16.984375 C-22.00997046 13.75672866 -16.8821703 10.46903164 -11.75 7.1875 C-9.91219139 6.0131749 -8.07370942 4.83990255 -6.234375 3.66796875 C-5.46319336 3.17578857 -4.69201172 2.6836084 -3.89746094 2.17651367 C-2 1 -2 1 0 0 Z " fill="#EBCB61" transform="translate(1424,524)"/>
<path d="M0 0 C-4.62630685 5.30308099 -10.40443136 8.55967844 -16.375 12.1875 C-18.52973642 13.51385491 -20.6833826 14.8419826 -22.8359375 16.171875 C-23.88491211 16.81962891 -24.93388672 17.46738281 -26.01464844 18.13476562 C-32.10799121 21.94185908 -38.06229032 25.95588684 -44 30 C-45.37063108 25.88810675 -44.09438956 24.17697866 -42.2734375 20.39453125 C-36.97233018 10.42649816 -28.17273269 3.41075729 -17.8125 -1.0625 C-11.62146651 -2.58488528 -5.68093111 -3.27044429 0 0 Z " fill="#EACC6A" transform="translate(1491,473)"/>
<path d="M0 0 C8.04167798 0.41239374 14.83431033 6.11501731 20.234375 11.7421875 C25.69059759 18.71939249 32.3128065 28.53406513 32.25 37.5625 C32.25773437 38.67818359 32.25773437 38.67818359 32.265625 39.81640625 C31.97020118 42.24496383 31.20662778 43.88840139 30 46 C29.34 46 28.68 46 28 46 C26.60229492 44.13012695 26.60229492 44.13012695 24.98046875 41.48828125 C24.375979 40.51189697 23.77148926 39.5355127 23.14868164 38.52954102 C22.5014917 37.46791748 21.85430176 36.40629395 21.1875 35.3125 C20.19447876 33.70169556 20.19447876 33.70169556 19.18139648 32.05834961 C17.80341938 29.82248282 16.42822143 27.58490108 15.05566406 25.34570312 C13.08869666 22.14435855 11.10654945 18.95309064 9.1171875 15.765625 C7.93225476 13.86460634 6.74735723 11.96356572 5.5625 10.0625 C5.00135498 9.16378174 4.44020996 8.26506348 3.86206055 7.33911133 C3.35199463 6.51693115 2.84192871 5.69475098 2.31640625 4.84765625 C1.64266968 3.7649646 1.64266968 3.7649646 0.95532227 2.66040039 C0 1 0 1 0 0 Z " fill="#EBCB60" transform="translate(129,468)"/>
<path d="M0 0 C5.26839221 1.72420109 7.98721887 4.48082831 11 9 C11 10.98 11 12.96 11 15 C-0.22 15 -11.44 15 -23 15 C-21.85294118 6.97058824 -21.85294118 6.97058824 -17 3 C-11.48455052 -0.87673359 -6.53850559 -0.63963642 0 0 Z " fill="#041E47" transform="translate(1268,344)"/>
<path d="M0 0 C2.78581855 2.5122825 4.56563202 5.32939311 6.51171875 8.5234375 C7.18783203 9.62816406 7.86394531 10.73289062 8.56054688 11.87109375 C9.2696587 13.03898512 9.97864275 14.20695409 10.6875 15.375 C11.37005859 16.49261719 12.05261719 17.61023438 12.75585938 18.76171875 C14.13480238 21.01959143 15.51224431 23.27838154 16.88818359 25.53808594 C20.23909693 31.03747405 23.62062788 36.51807095 27 42 C24 43 24 43 21.6953125 42.1796875 C16.68369504 39.63579657 12.66714849 37.36093334 9 33 C8.43539062 32.34 7.87078125 31.68 7.2890625 31 C0.53954406 22.79805355 -2.47443783 16.3214877 -2.3359375 5.6015625 C-2 3 -2 3 0 0 Z " fill="#EACC6A" transform="translate(82,405)"/>
<path d="M0 0 C2.30275374 2.30275374 2.61748813 3.79800482 3.5625 6.875 C4.73006292 9.93269308 5.41409699 11.59213382 8.12109375 13.4765625 C10.38915317 14.4523122 12.6525346 15.23955346 15 16 C16.34419843 16.6444787 17.68136224 17.30471827 19 18 C18.18015625 18.27972656 17.3603125 18.55945313 16.515625 18.84765625 C9.38931983 21.22576491 9.38931983 21.22576491 4.375 26.4375 C3.15202225 29.60612416 1.95418753 32.73985928 1 36 C-1.29315155 33.70684845 -1.65420931 32.18253704 -2.625 29.125 C-4.11789662 25.23561143 -5.24058214 23.31720893 -9 21.4375 C-11.61586448 20.36969594 -14.25120638 19.6442485 -17 19 C-17 18.34 -17 17.68 -17 17 C-16.31292969 16.74605469 -15.62585937 16.49210937 -14.91796875 16.23046875 C-14.01691406 15.88628906 -13.11585937 15.54210937 -12.1875 15.1875 C-11.29417969 14.85105469 -10.40085937 14.51460938 -9.48046875 14.16796875 C-4.91354116 12.01755718 -3.56444297 9.46421063 -1.8125 4.8125 C-1.29623047 3.46091797 -1.29623047 3.46091797 -0.76953125 2.08203125 C-0.38861328 1.05142578 -0.38861328 1.05142578 0 0 Z " fill="#6ECF12" transform="translate(1550,326)"/>
<path d="M0 0 C0 0.66 0 1.32 0 2 C-0.825 2.515625 -1.65 3.03125 -2.5 3.5625 C-24.856603 18.013138 -37.88407084 57.53628337 -44 82 C-44.16371094 82.65484375 -44.32742188 83.3096875 -44.49609375 83.984375 C-46.71340352 93.14681208 -49.06585278 103.80244167 -46 113 C-47.9375 112.25 -47.9375 112.25 -50 111 C-53.0817482 102.32341133 -50.77759808 92.14480571 -48.5 83.5625 C-48.23300293 82.53116943 -47.96600586 81.49983887 -47.69091797 80.43725586 C-44.88734622 69.98590542 -41.22564562 59.95365302 -37 50 C-36.68305176 49.25169922 -36.36610352 48.50339844 -36.03955078 47.73242188 C-15.46854055 0 -15.46854055 0 0 0 Z " fill="#C6A341" transform="translate(1346,58)"/>
<path d="M0 0 C0.33 0 0.66 0 1 0 C1.12375 0.57105469 1.2475 1.14210938 1.375 1.73046875 C4.57388684 14.30609265 12.61449392 24.37112578 21 34 C22.02867187 35.19496094 22.02867187 35.19496094 23.078125 36.4140625 C33.69176039 48.48215904 44.96871555 59.57094493 58 69 C58.62583984 69.4542334 59.25167969 69.9084668 59.89648438 70.37646484 C66.8555763 75.36709775 73.46417867 79.74168315 81.73046875 82.28125 C83.96696922 82.98953931 85.93336518 83.89779476 88 85 C87 86 87 86 83.375 86.0625 C64.01257269 83.55425507 45.97254566 64.59626017 32.73779297 51.69091797 C31.22512236 50.21904994 29.69416942 48.76601704 28.16015625 47.31640625 C18.28455138 37.81523189 9.90002896 26.83129965 3 15 C2.566875 14.25878906 2.13375 13.51757812 1.6875 12.75390625 C-0.51299949 8.71201656 -1.57533661 5.71776022 -1 1 C-0.67 0.67 -0.34 0.34 0 0 Z " fill="#C5A23F" transform="translate(338,78)"/>
<path d="M0 0 C12.16233581 4.32183631 12.16233581 4.32183631 14.6875 8 C18.49705125 16.70754572 17.41357084 26.81178957 16 36 C14.82843966 34.82843966 13.65921869 33.65446613 12.50048828 32.47021484 C11.02797378 30.9859192 11.02797378 30.9859192 9.43310547 29.70556641 C6.31519261 27.00959747 4.6401938 25.09425827 4.265625 20.90625 C4.23147704 19.43788778 4.22677121 17.96857554 4.25 16.5 C4.2222306 11.23307018 3.98752831 6.98459482 2 2 C1.34 2 0.68 2 0 2 C0 1.34 0 0.68 0 0 Z " fill="#ECCC62" transform="translate(1352,50)"/>
<path d="M0 0 C2.92578125 2.171875 2.92578125 2.171875 5 4 C-7.58711448 9.97319554 -7.58711448 9.97319554 -14 8 C-15.271636 7.4811295 -16.5424233 6.9601757 -17.8125 6.4375 C-22.50690496 4.5376033 -27.00865002 4.72383924 -32 5 C-24.22231732 -8.99982882 -12.8744519 -5.84503193 0 0 Z " fill="#ECCC62" transform="translate(366,64)"/>
<path d="M0 0 C-1.74023438 0.12955078 -1.74023438 0.12955078 -3.515625 0.26171875 C-21.5035155 1.79289062 -37.85095363 8.48737645 -50.390625 21.96484375 C-53.10803586 25.40118127 -55.1181707 29.05608955 -57 33 C-57.53625 34.0725 -58.0725 35.145 -58.625 36.25 C-60.08123683 39.80293788 -60.08123683 39.80293788 -60.39282227 42.9309082 C-61.11226655 47.8260924 -61.73746259 51.68027545 -65.23144531 55.33251953 C-68.17283622 57.40753901 -71.16434471 59.19220195 -74.3125 60.9375 C-76.57584332 62.28461457 -78.83885745 63.63228238 -81.1015625 64.98046875 C-82.26016257 65.65253017 -83.41934215 66.32359356 -84.57910156 66.99365234 C-89.8756915 70.10008798 -95.02531906 73.42676617 -100.1875 76.75 C-101.9513537 77.87053062 -103.7156462 78.99037093 -105.48046875 80.109375 C-108.1838736 81.825222 -110.85173681 83.57407372 -113.48828125 85.390625 C-116 87 -116 87 -118 87 C-118 86.34 -118 85.68 -118 85 C-116.60498047 83.89355469 -116.60498047 83.89355469 -114.6171875 82.671875 C-113.87283447 82.2087793 -113.12848145 81.74568359 -112.36157227 81.26855469 C-111.54100342 80.76743164 -110.72043457 80.26630859 -109.875 79.75 C-108.1311774 78.6672028 -106.38770184 77.58384654 -104.64453125 76.5 C-103.72365723 75.93023438 -102.8027832 75.36046875 -101.85400391 74.7734375 C-96.11860339 71.20954106 -90.41504554 67.59387516 -84.74414062 63.92822266 C-80.91440006 61.45558995 -77.12503381 59.00922487 -73.08203125 56.8984375 C-68.26755801 54.23611003 -65.60993189 52.60192786 -63.609375 47.34765625 C-62.89177806 44.57746751 -62.35355574 41.7900046 -61.8359375 38.9765625 C-59.68950521 27.60641865 -51.47146672 18.08550824 -42.375 11.375 C-32.09194299 4.59322927 -12.07279643 -8.04853095 0 0 Z " fill="#E8D290" transform="translate(1490,462)"/>
<path d="M0 0 C2.49237692 2.49237692 3.07520429 4.67924411 4.25 8 C9.13470853 20.9075583 16.68558385 32.67965666 28.93359375 39.67578125 C31.43529998 40.75613591 33.66659081 41.49097934 36.28515625 42.16796875 C45.34470474 44.5461121 51.31770151 46.74399627 56.22338867 55.12695312 C57.01765876 56.55456387 57.79989767 57.98890662 58.57275391 59.42822266 C61.27382138 64.29531892 64.28848539 68.97758411 67.23309326 73.6998291 C69.59493853 77.50201937 71.91870239 81.32762903 74.24462891 85.15185547 C75.80470377 87.68312576 77.4165119 90.17141376 79.04296875 92.66015625 C79.68878906 93.76230469 80.33460938 94.86445312 81 96 C80.67 96.66 80.34 97.32 80 98 C74.6664746 90.60128032 69.80488538 82.9756218 65.0625 75.1875 C64.39798828 74.10146484 63.73347656 73.01542969 63.04882812 71.89648438 C62.38431641 70.81044922 61.71980469 69.72441406 61.03515625 68.60546875 C60.36838867 67.5270874 59.70162109 66.44870605 59.01464844 65.33764648 C57.62408735 63.03391883 56.29667257 60.74123729 55.00878906 58.38305664 C51.29414266 51.2164686 51.29414266 51.2164686 44.8515625 46.84765625 C43.45240232 46.53827369 42.04187215 46.27660296 40.625 46.0625 C39.12782778 45.72927103 37.63295831 45.38552035 36.140625 45.03125 C35.42841797 44.86882812 34.71621094 44.70640625 33.98242188 44.5390625 C29.45742331 43.30861954 25.73637672 40.74754356 22 38 C21.36964844 37.55011719 20.73929688 37.10023438 20.08984375 36.63671875 C11.26658733 29.75263957 2.86927361 17.00801237 0.33984375 6.171875 C0.0625 3.6875 0.0625 3.6875 0 0 Z " fill="#E8D28F" transform="translate(71,420)"/>
<path d="M0 0 C2.67578125 1.4609375 2.67578125 1.4609375 5.3125 3.375 C6.19550781 4.00148438 7.07851563 4.62796875 7.98828125 5.2734375 C8.98408203 6.12808594 8.98408203 6.12808594 10 7 C10 7.66 10 8.32 10 9 C8.281952 9.89663451 6.54996503 10.76659588 4.8125 11.625 C3.84957031 12.11226562 2.88664062 12.59953125 1.89453125 13.1015625 C-1 14 -1 14 -3.5625 13.3125 C-4.366875 12.879375 -5.17125 12.44625 -6 12 C-7.21623047 11.36191406 -7.21623047 11.36191406 -8.45703125 10.7109375 C-9.62298828 10.04964844 -9.62298828 10.04964844 -10.8125 9.375 C-11.60269531 8.92898437 -12.39289063 8.48296875 -13.20703125 8.0234375 C-13.79871094 7.68570313 -14.39039063 7.34796875 -15 7 C-14 4 -14 4 -12.109375 2.83203125 C-11.33078125 2.49558594 -10.5521875 2.15914063 -9.75 1.8125 C-8.59757812 1.29623047 -8.59757812 1.29623047 -7.421875 0.76953125 C-4.6800667 -0.10165622 -2.859756 -0.36573151 0 0 Z " fill="#F0E5C3" transform="translate(373,68)"/>
<path d="M0 0 C1.1055189 0.93590504 2.20935453 1.87379858 3.3125 2.8125 C3.92738281 3.33457031 4.54226563 3.85664062 5.17578125 4.39453125 C6.07876953 5.18923828 6.07876953 5.18923828 7 6 C7.56460937 6.49628906 8.12921875 6.99257812 8.7109375 7.50390625 C10 9 10 9 10.3125 12.125 C9.95522068 16.55526358 9.09197041 20.7003665 8 25 C3.43357021 22.90409985 -0.20640915 20.23052408 -3 16 C-3.42976422 12.7937327 -2.83881102 10.09924331 -2 7 C-1.73316406 5.94619141 -1.73316406 5.94619141 -1.4609375 4.87109375 C-1.01799076 3.23483527 -0.51539461 1.6149031 0 0 Z " fill="#F0E5C4" transform="translate(1357,75)"/>
<path d="M0 0 C1.1055189 0.93590504 2.20935453 1.87379858 3.3125 2.8125 C3.92738281 3.33457031 4.54226563 3.85664062 5.17578125 4.39453125 C6.07876953 5.18923828 6.07876953 5.18923828 7 6 C7.58523438 6.46148437 8.17046875 6.92296875 8.7734375 7.3984375 C10 9 10 9 9.92578125 11.26953125 C9.72339844 12.10871094 9.52101563 12.94789062 9.3125 13.8125 C9.00119141 15.13314453 9.00119141 15.13314453 8.68359375 16.48046875 C7.90095477 19.36505243 7.03342102 22.19500009 6 25 C4.33333333 23.33333333 2.66666667 21.66666667 1 20 C0.030625 19.278125 -0.93875 18.55625 -1.9375 17.8125 C-4 15 -4 15 -3.9375 12.63671875 C-3.1069635 8.25693641 -1.88946963 4.0488635 0 0 Z " fill="#ECCC63" transform="translate(1354,91)"/>
<path d="M0 0 C2.28277387 1.60758723 4.5045193 3.25554198 6.69140625 4.9921875 C7.490625 5.62382813 8.28984375 6.25546875 9.11328125 6.90625 C9.7165625 7.38835937 10.31984375 7.87046875 10.94140625 8.3671875 C2.86183988 14.67491914 2.86183988 14.67491914 -1.94921875 14.16796875 C-4.7391794 13.10881702 -6.89389627 11.55216594 -9.30859375 9.8046875 C-10.200625 9.16402344 -11.09265625 8.52335937 -12.01171875 7.86328125 C-12.6871875 7.36957031 -13.36265625 6.87585938 -14.05859375 6.3671875 C-12.61406697 3.47813394 -10.63668486 2.98016821 -7.74609375 1.6171875 C-6.78058594 1.14796875 -5.81507813 0.67875 -4.8203125 0.1953125 C-2.05859375 -0.6328125 -2.05859375 -0.6328125 0 0 Z " fill="#ECCC63" transform="translate(385.05859375,76.6328125)"/>
<path d="M0 0 C2.140625 1.77734375 2.140625 1.77734375 4.25 3.9375 C4.95640625 4.64777344 5.6628125 5.35804687 6.390625 6.08984375 C8 8 8 8 8 10 C6.61256594 10.70429659 5.21455365 11.38777598 3.8125 12.0625 C3.03519531 12.44535156 2.25789063 12.82820313 1.45703125 13.22265625 C-1.56114789 14.17753327 -3.02235108 14.05536924 -6 13 C-8.23828125 11.15234375 -8.23828125 11.15234375 -10.3125 8.9375 C-11.00988281 8.20402344 -11.70726562 7.47054687 -12.42578125 6.71484375 C-12.94527344 6.14894531 -13.46476562 5.58304687 -14 5 C-4.93305859 -1.95653264 -4.93305859 -1.95653264 0 0 Z " fill="#F0E5C2" transform="translate(408,96)"/>
<path d="M0 0 C4.14181403 1.91299472 7.36013488 4.23391256 10 8 C10.22369191 13.1449139 7.41431836 17.57562123 5 22 C3.89134015 21.08877273 2.78827781 20.17073341 1.6875 19.25 C1.07261719 18.73953125 0.45773437 18.2290625 -0.17578125 17.703125 C-3.81369895 14.30669648 -3.81369895 14.30669648 -5 12 C-4.19921875 8.984375 -4.19921875 8.984375 -2.6875 5.75 C-2.19636719 4.67234375 -1.70523437 3.5946875 -1.19921875 2.484375 C-0.60560547 1.25460938 -0.60560547 1.25460938 0 0 Z " fill="#F0E5C3" transform="translate(1344,119)"/>
<path d="M0 0 C0.47050781 0.40992187 0.94101563 0.81984375 1.42578125 1.2421875 C2.04839844 1.78101562 2.67101563 2.31984375 3.3125 2.875 C3.92738281 3.40867187 4.54226563 3.94234375 5.17578125 4.4921875 C7.13498212 6.1640447 7.13498212 6.1640447 10 8 C9.01 11.3 8.02 14.6 7 18 C3.66666667 14.66666667 0.33333333 11.33333333 -3 8 C-1.125 1.125 -1.125 1.125 0 0 Z " fill="#ECCC65" transform="translate(1348,111)"/>
<path d="M0 0 C2.26171875 1.83203125 2.26171875 1.83203125 4.26171875 4.83203125 C2.68638789 5.70086831 1.10107366 6.55162193 -0.48828125 7.39453125 C-1.37 7.87019531 -2.25171875 8.34585938 -3.16015625 8.8359375 C-5.98901948 9.92890738 -6.98175506 9.9607812 -9.73828125 8.83203125 C-11.98828125 7.39453125 -11.98828125 7.39453125 -13.73828125 5.83203125 C-13.73828125 5.17203125 -13.73828125 4.51203125 -13.73828125 3.83203125 C-12.02303546 2.90982379 -10.29032333 2.02004714 -8.55078125 1.14453125 C-7.58785156 0.64566406 -6.62492187 0.14679688 -5.6328125 -0.3671875 C-2.73828125 -1.16796875 -2.73828125 -1.16796875 0 0 Z " fill="#ECCC63" transform="translate(401.73828125,90.16796875)"/>
<path d="M0 0 C1.06294533 2.70165272 1.0795626 3.79050654 0.03125 6.55078125 C-7.38943526 19.93451716 -18.29006669 28.01372374 -32.69921875 33.390625 C-36.24684615 34.33023429 -39.35083743 34.27030834 -43 34 C-43.33 33.34 -43.66 32.68 -44 32 C-43.29617188 31.93683594 -42.59234375 31.87367188 -41.8671875 31.80859375 C-29.11248989 30.22674483 -15.46228849 23.99957297 -7.2265625 13.8046875 C-4.18707937 9.43079714 -1.90196744 4.9662483 0 0 Z " fill="#E7D18E" transform="translate(1424,524)"/>
<path d="M0 0 C8.04167798 0.41239374 14.83431033 6.11501731 20.234375 11.7421875 C25.73856347 18.7807294 32.3118313 28.58284067 32.25 37.6875 C32.25773437 38.83798828 32.25773437 38.83798828 32.265625 40.01171875 C32 42 32 42 30 44 C29.91363281 43.10539062 29.82726562 42.21078125 29.73828125 41.2890625 C28.24976126 28.47959691 23.79017683 18.02367349 14.0546875 9.24609375 C9.67098276 5.81648945 5.03863993 3.33936854 0 1 C0 0.67 0 0.34 0 0 Z " fill="#E9D492" transform="translate(129,468)"/>
<path d="M0 0 C6.04617005 0.12596188 8.86395024 2.09485473 13.30078125 6.11328125 C16.35117078 9.50026549 17 11.37693527 17 16 C16.34 16 15.68 16 15 16 C15 15.34 15 14.68 15 14 C14.45859375 13.78472656 13.9171875 13.56945312 13.359375 13.34765625 C10.17213842 11.52713205 7.79153966 9.04241138 5.25 6.4375 C4.74339844 5.93025391 4.23679687 5.42300781 3.71484375 4.90039062 C0 1.14048812 0 1.14048812 0 0 Z " fill="#E7C966" transform="translate(388,121)"/>
<path d="M0 0 C0.66 0.33 1.32 0.66 2 1 C2.61370656 8.21105213 0.50456175 13.97979318 -4.125 19.5625 C-6 21 -6 21 -8 21 C-7.32512263 16.18080529 -5.42034091 12.08116134 -3.4375 7.6875 C-2.9434668 6.57665039 -2.9434668 6.57665039 -2.43945312 5.44335938 C-1.63082877 3.62688438 -0.81602884 1.81316069 0 0 Z " fill="#E7C966" transform="translate(1323,121)"/>
<path d="M0 0 C0.33 0 0.66 0 1 0 C1 22.77 1 45.54 1 69 C0.67 69 0.34 69 0 69 C-0.01030746 68.22992111 -0.02061493 67.45984222 -0.03123474 66.66642761 C-0.12917727 59.41222643 -0.23168711 52.15811104 -0.33933926 44.90404797 C-0.39452396 41.17458726 -0.44793681 37.44511864 -0.49731445 33.71557617 C-0.54502374 30.11695357 -0.59736887 26.51842563 -0.65294075 22.91991615 C-0.67333457 21.54641385 -0.69205255 20.17288562 -0.70907402 18.79933739 C-0.73318357 16.87682515 -0.76378238 14.95439759 -0.79467773 13.03198242 C-0.81022202 11.93722092 -0.8257663 10.84245941 -0.84178162 9.71452332 C-0.88735656 6.90377896 -0.88735656 6.90377896 -2 4 C-1.0625 1.8125 -1.0625 1.8125 0 0 Z " fill="#243A5E" transform="translate(1025,334)"/>
<path d="M0 0 C-1.99613268 6.7186905 -4.7291421 12.80734808 -8 19 C-8.33 19 -8.66 19 -9 19 C-9.72658631 11.68031564 -9.30630827 7.15517982 -4.60546875 1.36328125 C-3 0 -3 0 0 0 Z " fill="#E7C967" transform="translate(1334,89)"/>
<path d="M0 0 C-1.17195528 3.51586583 -1.85735595 3.81686471 -4.9296875 5.6640625 C-5.72503906 6.14617188 -6.52039062 6.62828125 -7.33984375 7.125 C-8.59474609 7.8675 -8.59474609 7.8675 -9.875 8.625 C-10.70386719 9.12773438 -11.53273438 9.63046875 -12.38671875 10.1484375 C-18.54110601 13.84703534 -18.54110601 13.84703534 -22 15 C-21.67 20.28 -21.34 25.56 -21 31 C-23.66434738 28.33565262 -23.59209636 26.73911674 -24 23 C-24.11359863 22.30769287 -24.22719727 21.61538574 -24.34423828 20.90209961 C-24.59707054 18.38606365 -24.60990835 16.46231155 -24 14 C-21.47463333 11.33838346 -18.48573374 9.80242025 -15.25 8.125 C-13.60875234 7.21205599 -11.96810695 6.29802823 -10.328125 5.3828125 C-9.5949707 4.99496582 -8.86181641 4.60711914 -8.10644531 4.20751953 C-5.92959226 3.02230119 -5.92959226 3.02230119 -3.85449219 1.35107422 C-2 0 -2 0 0 0 Z " fill="#E8D18B" transform="translate(1381,516)"/>
<path d="M0 0 C5.29012124 4.40843437 10.18808428 9.07559794 15 14 C12 15 12 15 9.1875 14 C5.30244434 11.56231802 2.45201465 8.89087046 0 5 C-0.375 2.0625 -0.375 2.0625 0 0 Z " fill="#E9CB69" transform="translate(362,100)"/>
<path d="M0 0 C0.66 0 1.32 0 2 0 C0.81715975 3.54852075 0.0817952 3.84648537 -3.03515625 5.69921875 C-3.84404297 6.18583984 -4.65292969 6.67246094 -5.48632812 7.17382812 C-6.33646484 7.67333984 -7.18660156 8.17285156 -8.0625 8.6875 C-8.91650391 9.19861328 -9.77050781 9.70972656 -10.65039062 10.23632812 C-12.76238114 11.4988029 -14.87890136 12.75290918 -17 14 C-17 13.01 -17 12.02 -17 11 C-15.54711914 9.75732422 -15.54711914 9.75732422 -13.53515625 8.5546875 C-12.45911133 7.89919922 -12.45911133 7.89919922 -11.36132812 7.23046875 C-10.60271484 6.78316406 -9.84410156 6.33585937 -9.0625 5.875 C-7.5737111 4.97740396 -6.08540422 4.0790078 -4.59765625 3.1796875 C-3.93258057 2.78507324 -3.26750488 2.39045898 -2.58227539 1.98388672 C-1.01942296 1.09512028 -1.01942296 1.09512028 0 0 Z " fill="#E8D391" transform="translate(1518,454)"/>
<path d="M0 0 C3.38644439 1.1288148 3.68598077 1.624253 5.48046875 4.52734375 C5.92197266 5.23697266 6.36347656 5.94660156 6.81835938 6.67773438 C7.27017578 7.42345703 7.72199219 8.16917969 8.1875 8.9375 C8.65091797 9.67935547 9.11433594 10.42121094 9.59179688 11.18554688 C13 16.72199466 13 16.72199466 13 19 C12.34 19 11.68 19 11 19 C9.76318359 17.47119141 9.76318359 17.47119141 8.3984375 15.3515625 C7.90859375 14.59359375 7.41875 13.835625 6.9140625 13.0546875 C6.40617187 12.25289063 5.89828125 11.45109375 5.375 10.625 C4.6015625 9.43390625 4.6015625 9.43390625 3.8125 8.21875 C0 2.26802249 0 2.26802249 0 0 Z " fill="#E8D28F" transform="translate(64,378)"/>
<path d="M0 0 C2.95536544 2.95536544 3.15448947 5.55502193 3.1875 9.5625 C3.20167969 10.34753906 3.21585938 11.13257813 3.23046875 11.94140625 C3 14 3 14 1 16 C0.63913128 13.52163716 0.28601843 11.04260213 -0.0625 8.5625 C-0.16626953 7.85544922 -0.27003906 7.14839844 -0.37695312 6.41992188 C-0.62689163 4.61864093 -0.81801314 2.80940959 -1 1 C-0.67 0.67 -0.34 0.34 0 0 Z " fill="#E6CD83" transform="translate(158,496)"/>
</svg>
